<svg xmlns="http://www.w3.org/2000/svg" width="880" height="500" viewBox="0 0 880 500">
<rect x="0" y="0" width="100%" height="100%" fill="white"/>
<line x1="0" y1="250" x2="880" y2="250" stroke="#cccccc" stroke-width="1" stroke-dasharray="4 4"/>
<line x1="440.00" y1="40.00" x2="173.33" y2="110.00" stroke="#34495e" stroke-width="2"/>
<line x1="440.00" y1="460.00" x2="706.67" y2="390.00" stroke="#34495e" stroke-width="2"/>
<line x1="440.00" y1="40.00" x2="440.00" y2="110.00" stroke="#34495e" stroke-width="2"/>
<line x1="440.00" y1="460.00" x2="440.00" y2="390.00" stroke="#34495e" stroke-width="2"/>
<line x1="440.00" y1="40.00" x2="706.67" y2="110.00" stroke="#34495e" stroke-width="2"/>
<line x1="440.00" y1="460.00" x2="173.33" y2="390.00" stroke="#34495e" stroke-width="2"/>
<line x1="173.33" y1="110.00" x2="62.22" y2="180.00" stroke="#34495e" stroke-width="2"/>
<line x1="706.67" y1="390.00" x2="817.78" y2="320.00" stroke="#34495e" stroke-width="2"/>
<line x1="173.33" y1="110.00" x2="106.67" y2="180.00" stroke="#34495e" stroke-width="2"/>
<line x1="706.67" y1="390.00" x2="773.33" y2="320.00" stroke="#34495e" stroke-width="2"/>
<line x1="173.33" y1="110.00" x2="151.11" y2="180.00" stroke="#34495e" stroke-width="2"/>
<line x1="706.67" y1="390.00" x2="728.89" y2="320.00" stroke="#34495e" stroke-width="2"/>
<line x1="173.33" y1="110.00" x2="195.56" y2="180.00" stroke="#34495e" stroke-width="2"/>
<line x1="706.67" y1="390.00" x2="684.44" y2="320.00" stroke="#34495e" stroke-width="2"/>
<line x1="173.33" y1="110.00" x2="240.00" y2="180.00" stroke="#34495e" stroke-width="2"/>
<line x1="706.67" y1="390.00" x2="640.00" y2="320.00" stroke="#34495e" stroke-width="2"/>
<line x1="173.33" y1="110.00" x2="284.44" y2="180.00" stroke="#34495e" stroke-width="2"/>
<line x1="706.67" y1="390.00" x2="595.56" y2="320.00" stroke="#34495e" stroke-width="2"/>
<line x1="62.22" y1="180.00" x2="51.11" y2="250.00" stroke="#34495e" stroke-width="2"/>
<line x1="817.78" y1="320.00" x2="828.89" y2="250.00" stroke="#34495e" stroke-width="2"/>
<line x1="62.22" y1="180.00" x2="73.33" y2="250.00" stroke="#34495e" stroke-width="2"/>
<line x1="817.78" y1="320.00" x2="806.67" y2="250.00" stroke="#34495e" stroke-width="2"/>
<line x1="106.67" y1="180.00" x2="95.56" y2="250.00" stroke="#34495e" stroke-width="2"/>
<line x1="773.33" y1="320.00" x2="784.44" y2="250.00" stroke="#34495e" stroke-width="2"/>
<line x1="106.67" y1="180.00" x2="117.78" y2="250.00" stroke="#34495e" stroke-width="2"/>
<line x1="773.33" y1="320.00" x2="762.22" y2="250.00" stroke="#34495e" stroke-width="2"/>
<line x1="151.11" y1="180.00" x2="140.00" y2="250.00" stroke="#34495e" stroke-width="2"/>
<line x1="728.89" y1="320.00" x2="740.00" y2="250.00" stroke="#34495e" stroke-width="2"/>
<line x1="151.11" y1="180.00" x2="162.22" y2="250.00" stroke="#34495e" stroke-width="2"/>
<line x1="728.89" y1="320.00" x2="717.78" y2="250.00" stroke="#34495e" stroke-width="2"/>
<line x1="195.56" y1="180.00" x2="184.44" y2="250.00" stroke="#34495e" stroke-width="2"/>
<line x1="684.44" y1="320.00" x2="695.56" y2="250.00" stroke="#34495e" stroke-width="2"/>
<line x1="195.56" y1="180.00" x2="206.67" y2="250.00" stroke="#34495e" stroke-width="2"/>
<line x1="684.44" y1="320.00" x2="673.33" y2="250.00" stroke="#34495e" stroke-width="2"/>
<line x1="240.00" y1="180.00" x2="228.89" y2="250.00" stroke="#34495e" stroke-width="2"/>
<line x1="640.00" y1="320.00" x2="651.11" y2="250.00" stroke="#34495e" stroke-width="2"/>
<line x1="240.00" y1="180.00" x2="251.11" y2="250.00" stroke="#34495e" stroke-width="2"/>
<line x1="640.00" y1="320.00" x2="628.89" y2="250.00" stroke="#34495e" stroke-width="2"/>
<line x1="284.44" y1="180.00" x2="273.33" y2="250.00" stroke="#34495e" stroke-width="2"/>
<line x1="595.56" y1="320.00" x2="606.67" y2="250.00" stroke="#34495e" stroke-width="2"/>
<line x1="284.44" y1="180.00" x2="295.56" y2="250.00" stroke="#34495e" stroke-width="2"/>
<line x1="595.56" y1="320.00" x2="584.44" y2="250.00" stroke="#34495e" stroke-width="2"/>
<line x1="440.00" y1="110.00" x2="333.33" y2="180.00" stroke="#34495e" stroke-width="2"/>
<line x1="440.00" y1="390.00" x2="546.67" y2="320.00" stroke="#34495e" stroke-width="2"/>
<line x1="440.00" y1="110.00" x2="386.67" y2="180.00" stroke="#34495e" stroke-width="2"/>
<line x1="440.00" y1="390.00" x2="493.33" y2="320.00" stroke="#34495e" stroke-width="2"/>
<line x1="440.00" y1="110.00" x2="440.00" y2="180.00" stroke="#34495e" stroke-width="2"/>
<line x1="440.00" y1="390.00" x2="440.00" y2="320.00" stroke="#34495e" stroke-width="2"/>
<line x1="440.00" y1="110.00" x2="493.33" y2="180.00" stroke="#34495e" stroke-width="2"/>
<line x1="440.00" y1="390.00" x2="386.67" y2="320.00" stroke="#34495e" stroke-width="2"/>
<line x1="440.00" y1="110.00" x2="546.67" y2="180.00" stroke="#34495e" stroke-width="2"/>
<line x1="440.00" y1="390.00" x2="333.33" y2="320.00" stroke="#34495e" stroke-width="2"/>
<line x1="333.33" y1="180.00" x2="313.33" y2="250.00" stroke="#34495e" stroke-width="2"/>
<line x1="546.67" y1="320.00" x2="566.67" y2="250.00" stroke="#34495e" stroke-width="2"/>
<line x1="333.33" y1="180.00" x2="326.67" y2="250.00" stroke="#34495e" stroke-width="2"/>
<line x1="546.67" y1="320.00" x2="553.33" y2="250.00" stroke="#34495e" stroke-width="2"/>
<line x1="333.33" y1="180.00" x2="340.00" y2="250.00" stroke="#34495e" stroke-width="2"/>
<line x1="546.67" y1="320.00" x2="540.00" y2="250.00" stroke="#34495e" stroke-width="2"/>
<line x1="333.33" y1="180.00" x2="353.33" y2="250.00" stroke="#34495e" stroke-width="2"/>
<line x1="546.67" y1="320.00" x2="526.67" y2="250.00" stroke="#34495e" stroke-width="2"/>
<line x1="386.67" y1="180.00" x2="373.33" y2="250.00" stroke="#34495e" stroke-width="2"/>
<line x1="493.33" y1="320.00" x2="506.67" y2="250.00" stroke="#34495e" stroke-width="2"/>
<line x1="386.67" y1="180.00" x2="400.00" y2="250.00" stroke="#34495e" stroke-width="2"/>
<line x1="493.33" y1="320.00" x2="480.00" y2="250.00" stroke="#34495e" stroke-width="2"/>
<line x1="440.00" y1="180.00" x2="422.22" y2="250.00" stroke="#34495e" stroke-width="2"/>
<line x1="440.00" y1="320.00" x2="457.78" y2="250.00" stroke="#34495e" stroke-width="2"/>
<line x1="440.00" y1="180.00" x2="440.00" y2="250.00" stroke="#34495e" stroke-width="2"/>
<line x1="440.00" y1="320.00" x2="440.00" y2="250.00" stroke="#34495e" stroke-width="2"/>
<line x1="440.00" y1="180.00" x2="457.78" y2="250.00" stroke="#34495e" stroke-width="2"/>
<line x1="440.00" y1="320.00" x2="422.22" y2="250.00" stroke="#34495e" stroke-width="2"/>
<line x1="493.33" y1="180.00" x2="480.00" y2="250.00" stroke="#34495e" stroke-width="2"/>
<line x1="386.67" y1="320.00" x2="400.00" y2="250.00" stroke="#34495e" stroke-width="2"/>
<line x1="493.33" y1="180.00" x2="506.67" y2="250.00" stroke="#34495e" stroke-width="2"/>
<line x1="386.67" y1="320.00" x2="373.33" y2="250.00" stroke="#34495e" stroke-width="2"/>
<line x1="546.67" y1="180.00" x2="526.67" y2="250.00" stroke="#34495e" stroke-width="2"/>
<line x1="333.33" y1="320.00" x2="353.33" y2="250.00" stroke="#34495e" stroke-width="2"/>
<line x1="546.67" y1="180.00" x2="540.00" y2="250.00" stroke="#34495e" stroke-width="2"/>
<line x1="333.33" y1="320.00" x2="340.00" y2="250.00" stroke="#34495e" stroke-width="2"/>
<line x1="546.67" y1="180.00" x2="553.33" y2="250.00" stroke="#34495e" stroke-width="2"/>
<line x1="333.33" y1="320.00" x2="326.67" y2="250.00" stroke="#34495e" stroke-width="2"/>
<line x1="546.67" y1="180.00" x2="566.67" y2="250.00" stroke="#34495e" stroke-width="2"/>
<line x1="333.33" y1="320.00" x2="313.33" y2="250.00" stroke="#34495e" stroke-width="2"/>
<line x1="706.67" y1="110.00" x2="606.67" y2="180.00" stroke="#34495e" stroke-width="2"/>
<line x1="173.33" y1="390.00" x2="273.33" y2="320.00" stroke="#34495e" stroke-width="2"/>
<line x1="706.67" y1="110.00" x2="673.33" y2="180.00" stroke="#34495e" stroke-width="2"/>
<line x1="173.33" y1="390.00" x2="206.67" y2="320.00" stroke="#34495e" stroke-width="2"/>
<line x1="706.67" y1="110.00" x2="740.00" y2="180.00" stroke="#34495e" stroke-width="2"/>
<line x1="173.33" y1="390.00" x2="140.00" y2="320.00" stroke="#34495e" stroke-width="2"/>
<line x1="706.67" y1="110.00" x2="806.67" y2="180.00" stroke="#34495e" stroke-width="2"/>
<line x1="173.33" y1="390.00" x2="73.33" y2="320.00" stroke="#34495e" stroke-width="2"/>
<line x1="606.67" y1="180.00" x2="584.44" y2="250.00" stroke="#34495e" stroke-width="2"/>
<line x1="273.33" y1="320.00" x2="295.56" y2="250.00" stroke="#34495e" stroke-width="2"/>
<line x1="606.67" y1="180.00" x2="606.67" y2="250.00" stroke="#34495e" stroke-width="2"/>
<line x1="273.33" y1="320.00" x2="273.33" y2="250.00" stroke="#34495e" stroke-width="2"/>
<line x1="606.67" y1="180.00" x2="628.89" y2="250.00" stroke="#34495e" stroke-width="2"/>
<line x1="273.33" y1="320.00" x2="251.11" y2="250.00" stroke="#34495e" stroke-width="2"/>
<line x1="673.33" y1="180.00" x2="651.11" y2="250.00" stroke="#34495e" stroke-width="2"/>
<line x1="206.67" y1="320.00" x2="228.89" y2="250.00" stroke="#34495e" stroke-width="2"/>
<line x1="673.33" y1="180.00" x2="673.33" y2="250.00" stroke="#34495e" stroke-width="2"/>
<line x1="206.67" y1="320.00" x2="206.67" y2="250.00" stroke="#34495e" stroke-width="2"/>
<line x1="673.33" y1="180.00" x2="695.56" y2="250.00" stroke="#34495e" stroke-width="2"/>
<line x1="206.67" y1="320.00" x2="184.44" y2="250.00" stroke="#34495e" stroke-width="2"/>
<line x1="740.00" y1="180.00" x2="717.78" y2="250.00" stroke="#34495e" stroke-width="2"/>
<line x1="140.00" y1="320.00" x2="162.22" y2="250.00" stroke="#34495e" stroke-width="2"/>
<line x1="740.00" y1="180.00" x2="740.00" y2="250.00" stroke="#34495e" stroke-width="2"/>
<line x1="140.00" y1="320.00" x2="140.00" y2="250.00" stroke="#34495e" stroke-width="2"/>
<line x1="740.00" y1="180.00" x2="762.22" y2="250.00" stroke="#34495e" stroke-width="2"/>
<line x1="140.00" y1="320.00" x2="117.78" y2="250.00" stroke="#34495e" stroke-width="2"/>
<line x1="806.67" y1="180.00" x2="784.44" y2="250.00" stroke="#34495e" stroke-width="2"/>
<line x1="73.33" y1="320.00" x2="95.56" y2="250.00" stroke="#34495e" stroke-width="2"/>
<line x1="806.67" y1="180.00" x2="806.67" y2="250.00" stroke="#34495e" stroke-width="2"/>
<line x1="73.33" y1="320.00" x2="73.33" y2="250.00" stroke="#34495e" stroke-width="2"/>
<line x1="806.67" y1="180.00" x2="828.89" y2="250.00" stroke="#34495e" stroke-width="2"/>
<line x1="73.33" y1="320.00" x2="51.11" y2="250.00" stroke="#34495e" stroke-width="2"/>
<circle cx="440.00" cy="40.00" r="6" fill="#e91e63" stroke="#2c3e50" stroke-width="1.5"/>
<circle cx="440.00" cy="460.00" r="6" fill="#e91e63" stroke="#2c3e50" stroke-width="1.5"/>
<circle cx="173.33" cy="110.00" r="6" fill="#e91e63" stroke="#2c3e50" stroke-width="1.5"/>
<circle cx="706.67" cy="390.00" r="6" fill="#e91e63" stroke="#2c3e50" stroke-width="1.5"/>
<circle cx="62.22" cy="180.00" r="6" fill="#e91e63" stroke="#2c3e50" stroke-width="1.5"/>
<circle cx="817.78" cy="320.00" r="6" fill="#e91e63" stroke="#2c3e50" stroke-width="1.5"/>
<circle cx="51.11" cy="250.00" r="6" fill="#e91e63" stroke="#2c3e50" stroke-width="1.5"/>
<circle cx="828.89" cy="250.00" r="6" fill="#e91e63" stroke="#2c3e50" stroke-width="1.5"/>
<circle cx="73.33" cy="250.00" r="6" fill="#e91e63" stroke="#2c3e50" stroke-width="1.5"/>
<circle cx="806.67" cy="250.00" r="6" fill="#e91e63" stroke="#2c3e50" stroke-width="1.5"/>
<circle cx="106.67" cy="180.00" r="6" fill="#e91e63" stroke="#2c3e50" stroke-width="1.5"/>
<circle cx="773.33" cy="320.00" r="6" fill="#e91e63" stroke="#2c3e50" stroke-width="1.5"/>
<circle cx="95.56" cy="250.00" r="6" fill="#e91e63" stroke="#2c3e50" stroke-width="1.5"/>
<circle cx="784.44" cy="250.00" r="6" fill="#e91e63" stroke="#2c3e50" stroke-width="1.5"/>
<circle cx="117.78" cy="250.00" r="6" fill="#e91e63" stroke="#2c3e50" stroke-width="1.5"/>
<circle cx="762.22" cy="250.00" r="6" fill="#e91e63" stroke="#2c3e50" stroke-width="1.5"/>
<circle cx="151.11" cy="180.00" r="6" fill="#e91e63" stroke="#2c3e50" stroke-width="1.5"/>
<circle cx="728.89" cy="320.00" r="6" fill="#e91e63" stroke="#2c3e50" stroke-width="1.5"/>
<circle cx="140.00" cy="250.00" r="6" fill="#e91e63" stroke="#2c3e50" stroke-width="1.5"/>
<circle cx="740.00" cy="250.00" r="6" fill="#e91e63" stroke="#2c3e50" stroke-width="1.5"/>
<circle cx="162.22" cy="250.00" r="6" fill="#e91e63" stroke="#2c3e50" stroke-width="1.5"/>
<circle cx="717.78" cy="250.00" r="6" fill="#e91e63" stroke="#2c3e50" stroke-width="1.5"/>
<circle cx="195.56" cy="180.00" r="6" fill="#e91e63" stroke="#2c3e50" stroke-width="1.5"/>
<circle cx="684.44" cy="320.00" r="6" fill="#e91e63" stroke="#2c3e50" stroke-width="1.5"/>
<circle cx="184.44" cy="250.00" r="6" fill="#e91e63" stroke="#2c3e50" stroke-width="1.5"/>
<circle cx="695.56" cy="250.00" r="6" fill="#e91e63" stroke="#2c3e50" stroke-width="1.5"/>
<circle cx="206.67" cy="250.00" r="6" fill="#e91e63" stroke="#2c3e50" stroke-width="1.5"/>
<circle cx="673.33" cy="250.00" r="6" fill="#e91e63" stroke="#2c3e50" stroke-width="1.5"/>
<circle cx="240.00" cy="180.00" r="6" fill="#e91e63" stroke="#2c3e50" stroke-width="1.5"/>
<circle cx="640.00" cy="320.00" r="6" fill="#e91e63" stroke="#2c3e50" stroke-width="1.5"/>
<circle cx="228.89" cy="250.00" r="6" fill="#e91e63" stroke="#2c3e50" stroke-width="1.5"/>
<circle cx="651.11" cy="250.00" r="6" fill="#e91e63" stroke="#2c3e50" stroke-width="1.5"/>
<circle cx="251.11" cy="250.00" r="6" fill="#e91e63" stroke="#2c3e50" stroke-width="1.5"/>
<circle cx="628.89" cy="250.00" r="6" fill="#e91e63" stroke="#2c3e50" stroke-width="1.5"/>
<circle cx="284.44" cy="180.00" r="6" fill="#e91e63" stroke="#2c3e50" stroke-width="1.5"/>
<circle cx="595.56" cy="320.00" r="6" fill="#e91e63" stroke="#2c3e50" stroke-width="1.5"/>
<circle cx="273.33" cy="250.00" r="6" fill="#e91e63" stroke="#2c3e50" stroke-width="1.5"/>
<circle cx="606.67" cy="250.00" r="6" fill="#e91e63" stroke="#2c3e50" stroke-width="1.5"/>
<circle cx="295.56" cy="250.00" r="6" fill="#e91e63" stroke="#2c3e50" stroke-width="1.5"/>
<circle cx="584.44" cy="250.00" r="6" fill="#e91e63" stroke="#2c3e50" stroke-width="1.5"/>
<circle cx="440.00" cy="110.00" r="6" fill="#e91e63" stroke="#2c3e50" stroke-width="1.5"/>
<circle cx="440.00" cy="390.00" r="6" fill="#e91e63" stroke="#2c3e50" stroke-width="1.5"/>
<circle cx="333.33" cy="180.00" r="6" fill="#e91e63" stroke="#2c3e50" stroke-width="1.5"/>
<circle cx="546.67" cy="320.00" r="6" fill="#e91e63" stroke="#2c3e50" stroke-width="1.5"/>
<circle cx="313.33" cy="250.00" r="6" fill="#e91e63" stroke="#2c3e50" stroke-width="1.5"/>
<circle cx="566.67" cy="250.00" r="6" fill="#e91e63" stroke="#2c3e50" stroke-width="1.5"/>
<circle cx="326.67" cy="250.00" r="6" fill="#e91e63" stroke="#2c3e50" stroke-width="1.5"/>
<circle cx="553.33" cy="250.00" r="6" fill="#e91e63" stroke="#2c3e50" stroke-width="1.5"/>
<circle cx="340.00" cy="250.00" r="6" fill="#e91e63" stroke="#2c3e50" stroke-width="1.5"/>
<circle cx="540.00" cy="250.00" r="6" fill="#e91e63" stroke="#2c3e50" stroke-width="1.5"/>
<circle cx="353.33" cy="250.00" r="6" fill="#e91e63" stroke="#2c3e50" stroke-width="1.5"/>
<circle cx="526.67" cy="250.00" r="6" fill="#e91e63" stroke="#2c3e50" stroke-width="1.5"/>
<circle cx="386.67" cy="180.00" r="6" fill="#e91e63" stroke="#2c3e50" stroke-width="1.5"/>
<circle cx="493.33" cy="320.00" r="6" fill="#e91e63" stroke="#2c3e50" stroke-width="1.5"/>
<circle cx="373.33" cy="250.00" r="6" fill="#e91e63" stroke="#2c3e50" stroke-width="1.5"/>
<circle cx="506.67" cy="250.00" r="6" fill="#e91e63" stroke="#2c3e50" stroke-width="1.5"/>
<circle cx="400.00" cy="250.00" r="6" fill="#e91e63" stroke="#2c3e50" stroke-width="1.5"/>
<circle cx="480.00" cy="250.00" r="6" fill="#e91e63" stroke="#2c3e50" stroke-width="1.5"/>
<circle cx="440.00" cy="180.00" r="6" fill="#e91e63" stroke="#2c3e50" stroke-width="1.5"/>
<circle cx="440.00" cy="320.00" r="6" fill="#e91e63" stroke="#2c3e50" stroke-width="1.5"/>
<circle cx="422.22" cy="250.00" r="6" fill="#e91e63" stroke="#2c3e50" stroke-width="1.5"/>
<circle cx="457.78" cy="250.00" r="6" fill="#e91e63" stroke="#2c3e50" stroke-width="1.5"/>
<circle cx="440.00" cy="250.00" r="6" fill="#e91e63" stroke="#2c3e50" stroke-width="1.5"/>
<circle cx="440.00" cy="250.00" r="6" fill="#e91e63" stroke="#2c3e50" stroke-width="1.5"/>
<circle cx="457.78" cy="250.00" r="6" fill="#e91e63" stroke="#2c3e50" stroke-width="1.5"/>
<circle cx="422.22" cy="250.00" r="6" fill="#e91e63" stroke="#2c3e50" stroke-width="1.5"/>
<circle cx="493.33" cy="180.00" r="6" fill="#e91e63" stroke="#2c3e50" stroke-width="1.5"/>
<circle cx="386.67" cy="320.00" r="6" fill="#e91e63" stroke="#2c3e50" stroke-width="1.5"/>
<circle cx="480.00" cy="250.00" r="6" fill="#e91e63" stroke="#2c3e50" stroke-width="1.5"/>
<circle cx="400.00" cy="250.00" r="6" fill="#e91e63" stroke="#2c3e50" stroke-width="1.5"/>
<circle cx="506.67" cy="250.00" r="6" fill="#e91e63" stroke="#2c3e50" stroke-width="1.5"/>
<circle cx="373.33" cy="250.00" r="6" fill="#e91e63" stroke="#2c3e50" stroke-width="1.5"/>
<circle cx="546.67" cy="180.00" r="6" fill="#e91e63" stroke="#2c3e50" stroke-width="1.5"/>
<circle cx="333.33" cy="320.00" r="6" fill="#e91e63" stroke="#2c3e50" stroke-width="1.5"/>
<circle cx="526.67" cy="250.00" r="6" fill="#e91e63" stroke="#2c3e50" stroke-width="1.5"/>
<circle cx="353.33" cy="250.00" r="6" fill="#e91e63" stroke="#2c3e50" stroke-width="1.5"/>
<circle cx="540.00" cy="250.00" r="6" fill="#e91e63" stroke="#2c3e50" stroke-width="1.5"/>
<circle cx="340.00" cy="250.00" r="6" fill="#e91e63" stroke="#2c3e50" stroke-width="1.5"/>
<circle cx="553.33" cy="250.00" r="6" fill="#e91e63" stroke="#2c3e50" stroke-width="1.5"/>
<circle cx="326.67" cy="250.00" r="6" fill="#e91e63" stroke="#2c3e50" stroke-width="1.5"/>
<circle cx="566.67" cy="250.00" r="6" fill="#e91e63" stroke="#2c3e50" stroke-width="1.5"/>
<circle cx="313.33" cy="250.00" r="6" fill="#e91e63" stroke="#2c3e50" stroke-width="1.5"/>
<circle cx="706.67" cy="110.00" r="6" fill="#e91e63" stroke="#2c3e50" stroke-width="1.5"/>
<circle cx="173.33" cy="390.00" r="6" fill="#e91e63" stroke="#2c3e50" stroke-width="1.5"/>
<circle cx="606.67" cy="180.00" r="6" fill="#e91e63" stroke="#2c3e50" stroke-width="1.5"/>
<circle cx="273.33" cy="320.00" r="6" fill="#e91e63" stroke="#2c3e50" stroke-width="1.5"/>
<circle cx="584.44" cy="250.00" r="6" fill="#e91e63" stroke="#2c3e50" stroke-width="1.5"/>
<circle cx="295.56" cy="250.00" r="6" fill="#e91e63" stroke="#2c3e50" stroke-width="1.5"/>
<circle cx="606.67" cy="250.00" r="6" fill="#e91e63" stroke="#2c3e50" stroke-width="1.5"/>
<circle cx="273.33" cy="250.00" r="6" fill="#e91e63" stroke="#2c3e50" stroke-width="1.5"/>
<circle cx="628.89" cy="250.00" r="6" fill="#e91e63" stroke="#2c3e50" stroke-width="1.5"/>
<circle cx="251.11" cy="250.00" r="6" fill="#e91e63" stroke="#2c3e50" stroke-width="1.5"/>
<circle cx="673.33" cy="180.00" r="6" fill="#e91e63" stroke="#2c3e50" stroke-width="1.5"/>
<circle cx="206.67" cy="320.00" r="6" fill="#e91e63" stroke="#2c3e50" stroke-width="1.5"/>
<circle cx="651.11" cy="250.00" r="6" fill="#e91e63" stroke="#2c3e50" stroke-width="1.5"/>
<circle cx="228.89" cy="250.00" r="6" fill="#e91e63" stroke="#2c3e50" stroke-width="1.5"/>
<circle cx="673.33" cy="250.00" r="6" fill="#e91e63" stroke="#2c3e50" stroke-width="1.5"/>
<circle cx="206.67" cy="250.00" r="6" fill="#e91e63" stroke="#2c3e50" stroke-width="1.5"/>
<circle cx="695.56" cy="250.00" r="6" fill="#e91e63" stroke="#2c3e50" stroke-width="1.5"/>
<circle cx="184.44" cy="250.00" r="6" fill="#e91e63" stroke="#2c3e50" stroke-width="1.5"/>
<circle cx="740.00" cy="180.00" r="6" fill="#e91e63" stroke="#2c3e50" stroke-width="1.5"/>
<circle cx="140.00" cy="320.00" r="6" fill="#e91e63" stroke="#2c3e50" stroke-width="1.5"/>
<circle cx="717.78" cy="250.00" r="6" fill="#e91e63" stroke="#2c3e50" stroke-width="1.5"/>
<circle cx="162.22" cy="250.00" r="6" fill="#e91e63" stroke="#2c3e50" stroke-width="1.5"/>
<circle cx="740.00" cy="250.00" r="6" fill="#e91e63" stroke="#2c3e50" stroke-width="1.5"/>
<circle cx="140.00" cy="250.00" r="6" fill="#e91e63" stroke="#2c3e50" stroke-width="1.5"/>
<circle cx="762.22" cy="250.00" r="6" fill="#e91e63" stroke="#2c3e50" stroke-width="1.5"/>
<circle cx="117.78" cy="250.00" r="6" fill="#e91e63" stroke="#2c3e50" stroke-width="1.5"/>
<circle cx="806.67" cy="180.00" r="6" fill="#e91e63" stroke="#2c3e50" stroke-width="1.5"/>
<circle cx="73.33" cy="320.00" r="6" fill="#e91e63" stroke="#2c3e50" stroke-width="1.5"/>
<circle cx="784.44" cy="250.00" r="6" fill="#e91e63" stroke="#2c3e50" stroke-width="1.5"/>
<circle cx="95.56" cy="250.00" r="6" fill="#e91e63" stroke="#2c3e50" stroke-width="1.5"/>
<circle cx="806.67" cy="250.00" r="6" fill="#e91e63" stroke="#2c3e50" stroke-width="1.5"/>
<circle cx="73.33" cy="250.00" r="6" fill="#e91e63" stroke="#2c3e50" stroke-width="1.5"/>
<circle cx="828.89" cy="250.00" r="6" fill="#e91e63" stroke="#2c3e50" stroke-width="1.5"/>
<circle cx="51.11" cy="250.00" r="6" fill="#e91e63" stroke="#2c3e50" stroke-width="1.5"/>
</svg>