<svg xmlns="http://www.w3.org/2000/svg" width="880" height="500" viewBox="0 0 880 500">
<rect x="0" y="0" width="100%" height="100%" fill="white"/>
<line x1="0" y1="250" x2="880" y2="250" stroke="#cccccc" stroke-width="1" stroke-dasharray="4 4"/>
<line x1="440.00" y1="40.00" x2="120.00" y2="110.00" stroke="#34495e" stroke-width="2"/>
<line x1="440.00" y1="460.00" x2="760.00" y2="390.00" stroke="#34495e" stroke-width="2"/>
<line x1="440.00" y1="40.00" x2="280.00" y2="110.00" stroke="#34495e" stroke-width="2"/>
<line x1="440.00" y1="460.00" x2="600.00" y2="390.00" stroke="#34495e" stroke-width="2"/>
<line x1="440.00" y1="40.00" x2="440.00" y2="110.00" stroke="#34495e" stroke-width="2"/>
<line x1="440.00" y1="460.00" x2="440.00" y2="390.00" stroke="#34495e" stroke-width="2"/>
<line x1="440.00" y1="40.00" x2="600.00" y2="110.00" stroke="#34495e" stroke-width="2"/>
<line x1="440.00" y1="460.00" x2="280.00" y2="390.00" stroke="#34495e" stroke-width="2"/>
<line x1="440.00" y1="40.00" x2="760.00" y2="110.00" stroke="#34495e" stroke-width="2"/>
<line x1="440.00" y1="460.00" x2="120.00" y2="390.00" stroke="#34495e" stroke-width="2"/>
<line x1="120.00" y1="110.00" x2="66.67" y2="180.00" stroke="#34495e" stroke-width="2"/>
<line x1="760.00" y1="390.00" x2="813.33" y2="320.00" stroke="#34495e" stroke-width="2"/>
<line x1="120.00" y1="110.00" x2="120.00" y2="180.00" stroke="#34495e" stroke-width="2"/>
<line x1="760.00" y1="390.00" x2="760.00" y2="320.00" stroke="#34495e" stroke-width="2"/>
<line x1="120.00" y1="110.00" x2="173.33" y2="180.00" stroke="#34495e" stroke-width="2"/>
<line x1="760.00" y1="390.00" x2="706.67" y2="320.00" stroke="#34495e" stroke-width="2"/>
<line x1="280.00" y1="110.00" x2="220.00" y2="180.00" stroke="#34495e" stroke-width="2"/>
<line x1="600.00" y1="390.00" x2="660.00" y2="320.00" stroke="#34495e" stroke-width="2"/>
<line x1="280.00" y1="110.00" x2="260.00" y2="180.00" stroke="#34495e" stroke-width="2"/>
<line x1="600.00" y1="390.00" x2="620.00" y2="320.00" stroke="#34495e" stroke-width="2"/>
<line x1="280.00" y1="110.00" x2="300.00" y2="180.00" stroke="#34495e" stroke-width="2"/>
<line x1="600.00" y1="390.00" x2="580.00" y2="320.00" stroke="#34495e" stroke-width="2"/>
<line x1="280.00" y1="110.00" x2="340.00" y2="180.00" stroke="#34495e" stroke-width="2"/>
<line x1="600.00" y1="390.00" x2="540.00" y2="320.00" stroke="#34495e" stroke-width="2"/>
<line x1="440.00" y1="110.00" x2="386.67" y2="180.00" stroke="#34495e" stroke-width="2"/>
<line x1="440.00" y1="390.00" x2="493.33" y2="320.00" stroke="#34495e" stroke-width="2"/>
<line x1="440.00" y1="110.00" x2="440.00" y2="180.00" stroke="#34495e" stroke-width="2"/>
<line x1="440.00" y1="390.00" x2="440.00" y2="320.00" stroke="#34495e" stroke-width="2"/>
<line x1="440.00" y1="110.00" x2="493.33" y2="180.00" stroke="#34495e" stroke-width="2"/>
<line x1="440.00" y1="390.00" x2="386.67" y2="320.00" stroke="#34495e" stroke-width="2"/>
<line x1="386.67" y1="180.00" x2="373.33" y2="250.00" stroke="#34495e" stroke-width="2"/>
<line x1="493.33" y1="320.00" x2="506.67" y2="250.00" stroke="#34495e" stroke-width="2"/>
<line x1="386.67" y1="180.00" x2="400.00" y2="250.00" stroke="#34495e" stroke-width="2"/>
<line x1="493.33" y1="320.00" x2="480.00" y2="250.00" stroke="#34495e" stroke-width="2"/>
<line x1="440.00" y1="180.00" x2="422.22" y2="250.00" stroke="#34495e" stroke-width="2"/>
<line x1="440.00" y1="320.00" x2="457.78" y2="250.00" stroke="#34495e" stroke-width="2"/>
<line x1="440.00" y1="180.00" x2="440.00" y2="250.00" stroke="#34495e" stroke-width="2"/>
<line x1="440.00" y1="320.00" x2="440.00" y2="250.00" stroke="#34495e" stroke-width="2"/>
<line x1="440.00" y1="180.00" x2="457.78" y2="250.00" stroke="#34495e" stroke-width="2"/>
<line x1="440.00" y1="320.00" x2="422.22" y2="250.00" stroke="#34495e" stroke-width="2"/>
<line x1="493.33" y1="180.00" x2="480.00" y2="250.00" stroke="#34495e" stroke-width="2"/>
<line x1="386.67" y1="320.00" x2="400.00" y2="250.00" stroke="#34495e" stroke-width="2"/>
<line x1="493.33" y1="180.00" x2="506.67" y2="250.00" stroke="#34495e" stroke-width="2"/>
<line x1="386.67" y1="320.00" x2="373.33" y2="250.00" stroke="#34495e" stroke-width="2"/>
<line x1="600.00" y1="110.00" x2="560.00" y2="180.00" stroke="#34495e" stroke-width="2"/>
<line x1="280.00" y1="390.00" x2="320.00" y2="320.00" stroke="#34495e" stroke-width="2"/>
<line x1="600.00" y1="110.00" x2="640.00" y2="180.00" stroke="#34495e" stroke-width="2"/>
<line x1="280.00" y1="390.00" x2="240.00" y2="320.00" stroke="#34495e" stroke-width="2"/>
<line x1="560.00" y1="180.00" x2="540.00" y2="250.00" stroke="#34495e" stroke-width="2"/>
<line x1="320.00" y1="320.00" x2="340.00" y2="250.00" stroke="#34495e" stroke-width="2"/>
<line x1="560.00" y1="180.00" x2="580.00" y2="250.00" stroke="#34495e" stroke-width="2"/>
<line x1="320.00" y1="320.00" x2="300.00" y2="250.00" stroke="#34495e" stroke-width="2"/>
<line x1="640.00" y1="180.00" x2="620.00" y2="250.00" stroke="#34495e" stroke-width="2"/>
<line x1="240.00" y1="320.00" x2="260.00" y2="250.00" stroke="#34495e" stroke-width="2"/>
<line x1="640.00" y1="180.00" x2="660.00" y2="250.00" stroke="#34495e" stroke-width="2"/>
<line x1="240.00" y1="320.00" x2="220.00" y2="250.00" stroke="#34495e" stroke-width="2"/>
<line x1="760.00" y1="110.00" x2="706.67" y2="180.00" stroke="#34495e" stroke-width="2"/>
<line x1="120.00" y1="390.00" x2="173.33" y2="320.00" stroke="#34495e" stroke-width="2"/>
<line x1="760.00" y1="110.00" x2="760.00" y2="180.00" stroke="#34495e" stroke-width="2"/>
<line x1="120.00" y1="390.00" x2="120.00" y2="320.00" stroke="#34495e" stroke-width="2"/>
<line x1="760.00" y1="110.00" x2="813.33" y2="180.00" stroke="#34495e" stroke-width="2"/>
<line x1="120.00" y1="390.00" x2="66.67" y2="320.00" stroke="#34495e" stroke-width="2"/>
<circle cx="440.00" cy="40.00" r="6" fill="#e91e63" stroke="#2c3e50" stroke-width="1.5"/>
<circle cx="440.00" cy="460.00" r="6" fill="#e91e63" stroke="#2c3e50" stroke-width="1.5"/>
<circle cx="120.00" cy="110.00" r="6" fill="#e91e63" stroke="#2c3e50" stroke-width="1.5"/>
<circle cx="760.00" cy="390.00" r="6" fill="#e91e63" stroke="#2c3e50" stroke-width="1.5"/>
<circle cx="66.67" cy="180.00" r="6" fill="#e91e63" stroke="#2c3e50" stroke-width="1.5"/>
<circle cx="813.33" cy="320.00" r="6" fill="#e91e63" stroke="#2c3e50" stroke-width="1.5"/>
<circle cx="120.00" cy="180.00" r="6" fill="#e91e63" stroke="#2c3e50" stroke-width="1.5"/>
<circle cx="760.00" cy="320.00" r="6" fill="#e91e63" stroke="#2c3e50" stroke-width="1.5"/>
<circle cx="173.33" cy="180.00" r="6" fill="#e91e63" stroke="#2c3e50" stroke-width="1.5"/>
<circle cx="706.67" cy="320.00" r="6" fill="#e91e63" stroke="#2c3e50" stroke-width="1.5"/>
<circle cx="280.00" cy="110.00" r="6" fill="#e91e63" stroke="#2c3e50" stroke-width="1.5"/>
<circle cx="600.00" cy="390.00" r="6" fill="#e91e63" stroke="#2c3e50" stroke-width="1.5"/>
<circle cx="220.00" cy="180.00" r="6" fill="#e91e63" stroke="#2c3e50" stroke-width="1.5"/>
<circle cx="660.00" cy="320.00" r="6" fill="#e91e63" stroke="#2c3e50" stroke-width="1.5"/>
<circle cx="260.00" cy="180.00" r="6" fill="#e91e63" stroke="#2c3e50" stroke-width="1.5"/>
<circle cx="620.00" cy="320.00" r="6" fill="#e91e63" stroke="#2c3e50" stroke-width="1.5"/>
<circle cx="300.00" cy="180.00" r="6" fill="#e91e63" stroke="#2c3e50" stroke-width="1.5"/>
<circle cx="580.00" cy="320.00" r="6" fill="#e91e63" stroke="#2c3e50" stroke-width="1.5"/>
<circle cx="340.00" cy="180.00" r="6" fill="#e91e63" stroke="#2c3e50" stroke-width="1.5"/>
<circle cx="540.00" cy="320.00" r="6" fill="#e91e63" stroke="#2c3e50" stroke-width="1.5"/>
<circle cx="440.00" cy="110.00" r="6" fill="#e91e63" stroke="#2c3e50" stroke-width="1.5"/>
<circle cx="440.00" cy="390.00" r="6" fill="#e91e63" stroke="#2c3e50" stroke-width="1.5"/>
<circle cx="386.67" cy="180.00" r="6" fill="#e91e63" stroke="#2c3e50" stroke-width="1.5"/>
<circle cx="493.33" cy="320.00" r="6" fill="#e91e63" stroke="#2c3e50" stroke-width="1.5"/>
<circle cx="373.33" cy="250.00" r="6" fill="#e91e63" stroke="#2c3e50" stroke-width="1.5"/>
<circle cx="506.67" cy="250.00" r="6" fill="#e91e63" stroke="#2c3e50" stroke-width="1.5"/>
<circle cx="400.00" cy="250.00" r="6" fill="#e91e63" stroke="#2c3e50" stroke-width="1.5"/>
<circle cx="480.00" cy="250.00" r="6" fill="#e91e63" stroke="#2c3e50" stroke-width="1.5"/>
<circle cx="440.00" cy="180.00" r="6" fill="#e91e63" stroke="#2c3e50" stroke-width="1.5"/>
<circle cx="440.00" cy="320.00" r="6" fill="#e91e63" stroke="#2c3e50" stroke-width="1.5"/>
<circle cx="422.22" cy="250.00" r="6" fill="#e91e63" stroke="#2c3e50" stroke-width="1.5"/>
<circle cx="457.78" cy="250.00" r="6" fill="#e91e63" stroke="#2c3e50" stroke-width="1.5"/>
<circle cx="440.00" cy="250.00" r="6" fill="#e91e63" stroke="#2c3e50" stroke-width="1.5"/>
<circle cx="440.00" cy="250.00" r="6" fill="#e91e63" stroke="#2c3e50" stroke-width="1.5"/>
<circle cx="457.78" cy="250.00" r="6" fill="#e91e63" stroke="#2c3e50" stroke-width="1.5"/>
<circle cx="422.22" cy="250.00" r="6" fill="#e91e63" stroke="#2c3e50" stroke-width="1.5"/>
<circle cx="493.33" cy="180.00" r="6" fill="#e91e63" stroke="#2c3e50" stroke-width="1.5"/>
<circle cx="386.67" cy="320.00" r="6" fill="#e91e63" stroke="#2c3e50" stroke-width="1.5"/>
<circle cx="480.00" cy="250.00" r="6" fill="#e91e63" stroke="#2c3e50" stroke-width="1.5"/>
<circle cx="400.00" cy="250.00" r="6" fill="#e91e63" stroke="#2c3e50" stroke-width="1.5"/>
<circle cx="506.67" cy="250.00" r="6" fill="#e91e63" stroke="#2c3e50" stroke-width="1.5"/>
<circle cx="373.33" cy="250.00" r="6" fill="#e91e63" stroke="#2c3e50" stroke-width="1.5"/>
<circle cx="600.00" cy="110.00" r="6" fill="#e91e63" stroke="#2c3e50" stroke-width="1.5"/>
<circle cx="280.00" cy="390.00" r="6" fill="#e91e63" stroke="#2c3e50" stroke-width="1.5"/>
<circle cx="560.00" cy="180.00" r="6" fill="#e91e63" stroke="#2c3e50" stroke-width="1.5"/>
<circle cx="320.00" cy="320.00" r="6" fill="#e91e63" stroke="#2c3e50" stroke-width="1.5"/>
<circle cx="540.00" cy="250.00" r="6" fill="#e91e63" stroke="#2c3e50" stroke-width="1.5"/>
<circle cx="340.00" cy="250.00" r="6" fill="#e91e63" stroke="#2c3e50" stroke-width="1.5"/>
<circle cx="580.00" cy="250.00" r="6" fill="#e91e63" stroke="#2c3e50" stroke-width="1.5"/>
<circle cx="300.00" cy="250.00" r="6" fill="#e91e63" stroke="#2c3e50" stroke-width="1.5"/>
<circle cx="640.00" cy="180.00" r="6" fill="#e91e63" stroke="#2c3e50" stroke-width="1.5"/>
<circle cx="240.00" cy="320.00" r="6" fill="#e91e63" stroke="#2c3e50" stroke-width="1.5"/>
<circle cx="620.00" cy="250.00" r="6" fill="#e91e63" stroke="#2c3e50" stroke-width="1.5"/>
<circle cx="260.00" cy="250.00" r="6" fill="#e91e63" stroke="#2c3e50" stroke-width="1.5"/>
<circle cx="660.00" cy="250.00" r="6" fill="#e91e63" stroke="#2c3e50" stroke-width="1.5"/>
<circle cx="220.00" cy="250.00" r="6" fill="#e91e63" stroke="#2c3e50" stroke-width="1.5"/>
<circle cx="760.00" cy="110.00" r="6" fill="#e91e63" stroke="#2c3e50" stroke-width="1.5"/>
<circle cx="120.00" cy="390.00" r="6" fill="#e91e63" stroke="#2c3e50" stroke-width="1.5"/>
<circle cx="706.67" cy="180.00" r="6" fill="#e91e63" stroke="#2c3e50" stroke-width="1.5"/>
<circle cx="173.33" cy="320.00" r="6" fill="#e91e63" stroke="#2c3e50" stroke-width="1.5"/>
<circle cx="760.00" cy="180.00" r="6" fill="#e91e63" stroke="#2c3e50" stroke-width="1.5"/>
<circle cx="120.00" cy="320.00" r="6" fill="#e91e63" stroke="#2c3e50" stroke-width="1.5"/>
<circle cx="813.33" cy="180.00" r="6" fill="#e91e63" stroke="#2c3e50" stroke-width="1.5"/>
<circle cx="66.67" cy="320.00" r="6" fill="#e91e63" stroke="#2c3e50" stroke-width="1.5"/>
</svg>