<svg xmlns="http://www.w3.org/2000/svg" width="880" height="500" viewBox="0 0 880 500">
<rect x="0" y="0" width="100%" height="100%" fill="white"/>
<line x1="0" y1="250" x2="880" y2="250" stroke="#cccccc" stroke-width="1" stroke-dasharray="4 4"/>
<line x1="440.00" y1="40.00" x2="173.33" y2="110.00" stroke="#34495e" stroke-width="2"/>
<line x1="440.00" y1="460.00" x2="706.67" y2="390.00" stroke="#34495e" stroke-width="2"/>
<line x1="440.00" y1="40.00" x2="440.00" y2="110.00" stroke="#34495e" stroke-width="2"/>
<line x1="440.00" y1="460.00" x2="440.00" y2="390.00" stroke="#34495e" stroke-width="2"/>
<line x1="440.00" y1="40.00" x2="706.67" y2="110.00" stroke="#34495e" stroke-width="2"/>
<line x1="440.00" y1="460.00" x2="173.33" y2="390.00" stroke="#34495e" stroke-width="2"/>
<line x1="173.33" y1="110.00" x2="84.44" y2="180.00" stroke="#34495e" stroke-width="2"/>
<line x1="706.67" y1="390.00" x2="795.56" y2="320.00" stroke="#34495e" stroke-width="2"/>
<line x1="173.33" y1="110.00" x2="173.33" y2="180.00" stroke="#34495e" stroke-width="2"/>
<line x1="706.67" y1="390.00" x2="706.67" y2="320.00" stroke="#34495e" stroke-width="2"/>
<line x1="173.33" y1="110.00" x2="262.22" y2="180.00" stroke="#34495e" stroke-width="2"/>
<line x1="706.67" y1="390.00" x2="617.78" y2="320.00" stroke="#34495e" stroke-width="2"/>
<line x1="84.44" y1="180.00" x2="62.22" y2="250.00" stroke="#34495e" stroke-width="2"/>
<line x1="795.56" y1="320.00" x2="817.78" y2="250.00" stroke="#34495e" stroke-width="2"/>
<line x1="84.44" y1="180.00" x2="106.67" y2="250.00" stroke="#34495e" stroke-width="2"/>
<line x1="795.56" y1="320.00" x2="773.33" y2="250.00" stroke="#34495e" stroke-width="2"/>
<line x1="173.33" y1="180.00" x2="151.11" y2="250.00" stroke="#34495e" stroke-width="2"/>
<line x1="706.67" y1="320.00" x2="728.89" y2="250.00" stroke="#34495e" stroke-width="2"/>
<line x1="173.33" y1="180.00" x2="195.56" y2="250.00" stroke="#34495e" stroke-width="2"/>
<line x1="706.67" y1="320.00" x2="684.44" y2="250.00" stroke="#34495e" stroke-width="2"/>
<line x1="262.22" y1="180.00" x2="240.00" y2="250.00" stroke="#34495e" stroke-width="2"/>
<line x1="617.78" y1="320.00" x2="640.00" y2="250.00" stroke="#34495e" stroke-width="2"/>
<line x1="262.22" y1="180.00" x2="284.44" y2="250.00" stroke="#34495e" stroke-width="2"/>
<line x1="617.78" y1="320.00" x2="595.56" y2="250.00" stroke="#34495e" stroke-width="2"/>
<line x1="440.00" y1="110.00" x2="373.33" y2="180.00" stroke="#34495e" stroke-width="2"/>
<line x1="440.00" y1="390.00" x2="506.67" y2="320.00" stroke="#34495e" stroke-width="2"/>
<line x1="440.00" y1="110.00" x2="506.67" y2="180.00" stroke="#34495e" stroke-width="2"/>
<line x1="440.00" y1="390.00" x2="373.33" y2="320.00" stroke="#34495e" stroke-width="2"/>
<line x1="373.33" y1="180.00" x2="340.00" y2="250.00" stroke="#34495e" stroke-width="2"/>
<line x1="506.67" y1="320.00" x2="540.00" y2="250.00" stroke="#34495e" stroke-width="2"/>
<line x1="373.33" y1="180.00" x2="406.67" y2="250.00" stroke="#34495e" stroke-width="2"/>
<line x1="506.67" y1="320.00" x2="473.33" y2="250.00" stroke="#34495e" stroke-width="2"/>
<line x1="506.67" y1="180.00" x2="473.33" y2="250.00" stroke="#34495e" stroke-width="2"/>
<line x1="373.33" y1="320.00" x2="406.67" y2="250.00" stroke="#34495e" stroke-width="2"/>
<line x1="506.67" y1="180.00" x2="540.00" y2="250.00" stroke="#34495e" stroke-width="2"/>
<line x1="373.33" y1="320.00" x2="340.00" y2="250.00" stroke="#34495e" stroke-width="2"/>
<line x1="706.67" y1="110.00" x2="640.00" y2="180.00" stroke="#34495e" stroke-width="2"/>
<line x1="173.33" y1="390.00" x2="240.00" y2="320.00" stroke="#34495e" stroke-width="2"/>
<line x1="706.67" y1="110.00" x2="773.33" y2="180.00" stroke="#34495e" stroke-width="2"/>
<line x1="173.33" y1="390.00" x2="106.67" y2="320.00" stroke="#34495e" stroke-width="2"/>
<line x1="640.00" y1="180.00" x2="595.56" y2="250.00" stroke="#34495e" stroke-width="2"/>
<line x1="240.00" y1="320.00" x2="284.44" y2="250.00" stroke="#34495e" stroke-width="2"/>
<line x1="640.00" y1="180.00" x2="640.00" y2="250.00" stroke="#34495e" stroke-width="2"/>
<line x1="240.00" y1="320.00" x2="240.00" y2="250.00" stroke="#34495e" stroke-width="2"/>
<line x1="640.00" y1="180.00" x2="684.44" y2="250.00" stroke="#34495e" stroke-width="2"/>
<line x1="240.00" y1="320.00" x2="195.56" y2="250.00" stroke="#34495e" stroke-width="2"/>
<line x1="773.33" y1="180.00" x2="728.89" y2="250.00" stroke="#34495e" stroke-width="2"/>
<line x1="106.67" y1="320.00" x2="151.11" y2="250.00" stroke="#34495e" stroke-width="2"/>
<line x1="773.33" y1="180.00" x2="773.33" y2="250.00" stroke="#34495e" stroke-width="2"/>
<line x1="106.67" y1="320.00" x2="106.67" y2="250.00" stroke="#34495e" stroke-width="2"/>
<line x1="773.33" y1="180.00" x2="817.78" y2="250.00" stroke="#34495e" stroke-width="2"/>
<line x1="106.67" y1="320.00" x2="62.22" y2="250.00" stroke="#34495e" stroke-width="2"/>
<circle cx="440.00" cy="40.00" r="6" fill="#e91e63" stroke="#2c3e50" stroke-width="1.5"/>
<circle cx="440.00" cy="460.00" r="6" fill="#e91e63" stroke="#2c3e50" stroke-width="1.5"/>
<circle cx="173.33" cy="110.00" r="6" fill="#e91e63" stroke="#2c3e50" stroke-width="1.5"/>
<circle cx="706.67" cy="390.00" r="6" fill="#e91e63" stroke="#2c3e50" stroke-width="1.5"/>
<circle cx="84.44" cy="180.00" r="6" fill="#e91e63" stroke="#2c3e50" stroke-width="1.5"/>
<circle cx="795.56" cy="320.00" r="6" fill="#e91e63" stroke="#2c3e50" stroke-width="1.5"/>
<circle cx="62.22" cy="250.00" r="6" fill="#e91e63" stroke="#2c3e50" stroke-width="1.5"/>
<circle cx="817.78" cy="250.00" r="6" fill="#e91e63" stroke="#2c3e50" stroke-width="1.5"/>
<circle cx="106.67" cy="250.00" r="6" fill="#e91e63" stroke="#2c3e50" stroke-width="1.5"/>
<circle cx="773.33" cy="250.00" r="6" fill="#e91e63" stroke="#2c3e50" stroke-width="1.5"/>
<circle cx="173.33" cy="180.00" r="6" fill="#e91e63" stroke="#2c3e50" stroke-width="1.5"/>
<circle cx="706.67" cy="320.00" r="6" fill="#e91e63" stroke="#2c3e50" stroke-width="1.5"/>
<circle cx="151.11" cy="250.00" r="6" fill="#e91e63" stroke="#2c3e50" stroke-width="1.5"/>
<circle cx="728.89" cy="250.00" r="6" fill="#e91e63" stroke="#2c3e50" stroke-width="1.5"/>
<circle cx="195.56" cy="250.00" r="6" fill="#e91e63" stroke="#2c3e50" stroke-width="1.5"/>
<circle cx="684.44" cy="250.00" r="6" fill="#e91e63" stroke="#2c3e50" stroke-width="1.5"/>
<circle cx="262.22" cy="180.00" r="6" fill="#e91e63" stroke="#2c3e50" stroke-width="1.5"/>
<circle cx="617.78" cy="320.00" r="6" fill="#e91e63" stroke="#2c3e50" stroke-width="1.5"/>
<circle cx="240.00" cy="250.00" r="6" fill="#e91e63" stroke="#2c3e50" stroke-width="1.5"/>
<circle cx="640.00" cy="250.00" r="6" fill="#e91e63" stroke="#2c3e50" stroke-width="1.5"/>
<circle cx="284.44" cy="250.00" r="6" fill="#e91e63" stroke="#2c3e50" stroke-width="1.5"/>
<circle cx="595.56" cy="250.00" r="6" fill="#e91e63" stroke="#2c3e50" stroke-width="1.5"/>
<circle cx="440.00" cy="110.00" r="6" fill="#e91e63" stroke="#2c3e50" stroke-width="1.5"/>
<circle cx="440.00" cy="390.00" r="6" fill="#e91e63" stroke="#2c3e50" stroke-width="1.5"/>
<circle cx="373.33" cy="180.00" r="6" fill="#e91e63" stroke="#2c3e50" stroke-width="1.5"/>
<circle cx="506.67" cy="320.00" r="6" fill="#e91e63" stroke="#2c3e50" stroke-width="1.5"/>
<circle cx="340.00" cy="250.00" r="6" fill="#e91e63" stroke="#2c3e50" stroke-width="1.5"/>
<circle cx="540.00" cy="250.00" r="6" fill="#e91e63" stroke="#2c3e50" stroke-width="1.5"/>
<circle cx="406.67" cy="250.00" r="6" fill="#e91e63" stroke="#2c3e50" stroke-width="1.5"/>
<circle cx="473.33" cy="250.00" r="6" fill="#e91e63" stroke="#2c3e50" stroke-width="1.5"/>
<circle cx="506.67" cy="180.00" r="6" fill="#e91e63" stroke="#2c3e50" stroke-width="1.5"/>
<circle cx="373.33" cy="320.00" r="6" fill="#e91e63" stroke="#2c3e50" stroke-width="1.5"/>
<circle cx="473.33" cy="250.00" r="6" fill="#e91e63" stroke="#2c3e50" stroke-width="1.5"/>
<circle cx="406.67" cy="250.00" r="6" fill="#e91e63" stroke="#2c3e50" stroke-width="1.5"/>
<circle cx="540.00" cy="250.00" r="6" fill="#e91e63" stroke="#2c3e50" stroke-width="1.5"/>
<circle cx="340.00" cy="250.00" r="6" fill="#e91e63" stroke="#2c3e50" stroke-width="1.5"/>
<circle cx="706.67" cy="110.00" r="6" fill="#e91e63" stroke="#2c3e50" stroke-width="1.5"/>
<circle cx="173.33" cy="390.00" r="6" fill="#e91e63" stroke="#2c3e50" stroke-width="1.5"/>
<circle cx="640.00" cy="180.00" r="6" fill="#e91e63" stroke="#2c3e50" stroke-width="1.5"/>
<circle cx="240.00" cy="320.00" r="6" fill="#e91e63" stroke="#2c3e50" stroke-width="1.5"/>
<circle cx="595.56" cy="250.00" r="6" fill="#e91e63" stroke="#2c3e50" stroke-width="1.5"/>
<circle cx="284.44" cy="250.00" r="6" fill="#e91e63" stroke="#2c3e50" stroke-width="1.5"/>
<circle cx="640.00" cy="250.00" r="6" fill="#e91e63" stroke="#2c3e50" stroke-width="1.5"/>
<circle cx="240.00" cy="250.00" r="6" fill="#e91e63" stroke="#2c3e50" stroke-width="1.5"/>
<circle cx="684.44" cy="250.00" r="6" fill="#e91e63" stroke="#2c3e50" stroke-width="1.5"/>
<circle cx="195.56" cy="250.00" r="6" fill="#e91e63" stroke="#2c3e50" stroke-width="1.5"/>
<circle cx="773.33" cy="180.00" r="6" fill="#e91e63" stroke="#2c3e50" stroke-width="1.5"/>
<circle cx="106.67" cy="320.00" r="6" fill="#e91e63" stroke="#2c3e50" stroke-width="1.5"/>
<circle cx="728.89" cy="250.00" r="6" fill="#e91e63" stroke="#2c3e50" stroke-width="1.5"/>
<circle cx="151.11" cy="250.00" r="6" fill="#e91e63" stroke="#2c3e50" stroke-width="1.5"/>
<circle cx="773.33" cy="250.00" r="6" fill="#e91e63" stroke="#2c3e50" stroke-width="1.5"/>
<circle cx="106.67" cy="250.00" r="6" fill="#e91e63" stroke="#2c3e50" stroke-width="1.5"/>
<circle cx="817.78" cy="250.00" r="6" fill="#e91e63" stroke="#2c3e50" stroke-width="1.5"/>
<circle cx="62.22" cy="250.00" r="6" fill="#e91e63" stroke="#2c3e50" stroke-width="1.5"/>
</svg>