<svg xmlns="http://www.w3.org/2000/svg" width="880" height="640" viewBox="0 0 880 640">
<rect x="0" y="0" width="100%" height="100%" fill="white"/>
<line x1="0" y1="320" x2="880" y2="320" stroke="#cccccc" stroke-width="1" stroke-dasharray="4 4"/>
<line x1="440.00" y1="40.00" x2="240.00" y2="110.00" stroke="#34495e" stroke-width="2"/>
<line x1="440.00" y1="600.00" x2="640.00" y2="530.00" stroke="#34495e" stroke-width="2"/>
<line x1="440.00" y1="40.00" x2="640.00" y2="110.00" stroke="#34495e" stroke-width="2"/>
<line x1="440.00" y1="600.00" x2="240.00" y2="530.00" stroke="#34495e" stroke-width="2"/>
<line x1="240.00" y1="110.00" x2="90.00" y2="180.00" stroke="#34495e" stroke-width="2"/>
<line x1="640.00" y1="530.00" x2="790.00" y2="460.00" stroke="#34495e" stroke-width="2"/>
<line x1="240.00" y1="110.00" x2="190.00" y2="180.00" stroke="#34495e" stroke-width="2"/>
<line x1="640.00" y1="530.00" x2="690.00" y2="460.00" stroke="#34495e" stroke-width="2"/>
<line x1="240.00" y1="110.00" x2="290.00" y2="180.00" stroke="#34495e" stroke-width="2"/>
<line x1="640.00" y1="530.00" x2="590.00" y2="460.00" stroke="#34495e" stroke-width="2"/>
<line x1="240.00" y1="110.00" x2="390.00" y2="180.00" stroke="#34495e" stroke-width="2"/>
<line x1="640.00" y1="530.00" x2="490.00" y2="460.00" stroke="#34495e" stroke-width="2"/>
<line x1="90.00" y1="180.00" x2="56.67" y2="250.00" stroke="#34495e" stroke-width="2"/>
<line x1="790.00" y1="460.00" x2="823.33" y2="390.00" stroke="#34495e" stroke-width="2"/>
<line x1="90.00" y1="180.00" x2="90.00" y2="250.00" stroke="#34495e" stroke-width="2"/>
<line x1="790.00" y1="460.00" x2="790.00" y2="390.00" stroke="#34495e" stroke-width="2"/>
<line x1="90.00" y1="180.00" x2="123.33" y2="250.00" stroke="#34495e" stroke-width="2"/>
<line x1="790.00" y1="460.00" x2="756.67" y2="390.00" stroke="#34495e" stroke-width="2"/>
<line x1="56.67" y1="250.00" x2="45.56" y2="320.00" stroke="#34495e" stroke-width="2"/>
<line x1="823.33" y1="390.00" x2="834.44" y2="320.00" stroke="#34495e" stroke-width="2"/>
<line x1="56.67" y1="250.00" x2="56.67" y2="320.00" stroke="#34495e" stroke-width="2"/>
<line x1="823.33" y1="390.00" x2="823.33" y2="320.00" stroke="#34495e" stroke-width="2"/>
<line x1="56.67" y1="250.00" x2="67.78" y2="320.00" stroke="#34495e" stroke-width="2"/>
<line x1="823.33" y1="390.00" x2="812.22" y2="320.00" stroke="#34495e" stroke-width="2"/>
<line x1="90.00" y1="250.00" x2="78.89" y2="320.00" stroke="#34495e" stroke-width="2"/>
<line x1="790.00" y1="390.00" x2="801.11" y2="320.00" stroke="#34495e" stroke-width="2"/>
<line x1="90.00" y1="250.00" x2="90.00" y2="320.00" stroke="#34495e" stroke-width="2"/>
<line x1="790.00" y1="390.00" x2="790.00" y2="320.00" stroke="#34495e" stroke-width="2"/>
<line x1="90.00" y1="250.00" x2="101.11" y2="320.00" stroke="#34495e" stroke-width="2"/>
<line x1="790.00" y1="390.00" x2="778.89" y2="320.00" stroke="#34495e" stroke-width="2"/>
<line x1="123.33" y1="250.00" x2="112.22" y2="320.00" stroke="#34495e" stroke-width="2"/>
<line x1="756.67" y1="390.00" x2="767.78" y2="320.00" stroke="#34495e" stroke-width="2"/>
<line x1="123.33" y1="250.00" x2="123.33" y2="320.00" stroke="#34495e" stroke-width="2"/>
<line x1="756.67" y1="390.00" x2="756.67" y2="320.00" stroke="#34495e" stroke-width="2"/>
<line x1="123.33" y1="250.00" x2="134.44" y2="320.00" stroke="#34495e" stroke-width="2"/>
<line x1="756.67" y1="390.00" x2="745.56" y2="320.00" stroke="#34495e" stroke-width="2"/>
<line x1="190.00" y1="180.00" x2="156.67" y2="250.00" stroke="#34495e" stroke-width="2"/>
<line x1="690.00" y1="460.00" x2="723.33" y2="390.00" stroke="#34495e" stroke-width="2"/>
<line x1="190.00" y1="180.00" x2="190.00" y2="250.00" stroke="#34495e" stroke-width="2"/>
<line x1="690.00" y1="460.00" x2="690.00" y2="390.00" stroke="#34495e" stroke-width="2"/>
<line x1="190.00" y1="180.00" x2="223.33" y2="250.00" stroke="#34495e" stroke-width="2"/>
<line x1="690.00" y1="460.00" x2="656.67" y2="390.00" stroke="#34495e" stroke-width="2"/>
<line x1="156.67" y1="250.00" x2="145.56" y2="320.00" stroke="#34495e" stroke-width="2"/>
<line x1="723.33" y1="390.00" x2="734.44" y2="320.00" stroke="#34495e" stroke-width="2"/>
<line x1="156.67" y1="250.00" x2="156.67" y2="320.00" stroke="#34495e" stroke-width="2"/>
<line x1="723.33" y1="390.00" x2="723.33" y2="320.00" stroke="#34495e" stroke-width="2"/>
<line x1="156.67" y1="250.00" x2="167.78" y2="320.00" stroke="#34495e" stroke-width="2"/>
<line x1="723.33" y1="390.00" x2="712.22" y2="320.00" stroke="#34495e" stroke-width="2"/>
<line x1="190.00" y1="250.00" x2="178.89" y2="320.00" stroke="#34495e" stroke-width="2"/>
<line x1="690.00" y1="390.00" x2="701.11" y2="320.00" stroke="#34495e" stroke-width="2"/>
<line x1="190.00" y1="250.00" x2="190.00" y2="320.00" stroke="#34495e" stroke-width="2"/>
<line x1="690.00" y1="390.00" x2="690.00" y2="320.00" stroke="#34495e" stroke-width="2"/>
<line x1="190.00" y1="250.00" x2="201.11" y2="320.00" stroke="#34495e" stroke-width="2"/>
<line x1="690.00" y1="390.00" x2="678.89" y2="320.00" stroke="#34495e" stroke-width="2"/>
<line x1="223.33" y1="250.00" x2="212.22" y2="320.00" stroke="#34495e" stroke-width="2"/>
<line x1="656.67" y1="390.00" x2="667.78" y2="320.00" stroke="#34495e" stroke-width="2"/>
<line x1="223.33" y1="250.00" x2="223.33" y2="320.00" stroke="#34495e" stroke-width="2"/>
<line x1="656.67" y1="390.00" x2="656.67" y2="320.00" stroke="#34495e" stroke-width="2"/>
<line x1="223.33" y1="250.00" x2="234.44" y2="320.00" stroke="#34495e" stroke-width="2"/>
<line x1="656.67" y1="390.00" x2="645.56" y2="320.00" stroke="#34495e" stroke-width="2"/>
<line x1="290.00" y1="180.00" x2="256.67" y2="250.00" stroke="#34495e" stroke-width="2"/>
<line x1="590.00" y1="460.00" x2="623.33" y2="390.00" stroke="#34495e" stroke-width="2"/>
<line x1="290.00" y1="180.00" x2="290.00" y2="250.00" stroke="#34495e" stroke-width="2"/>
<line x1="590.00" y1="460.00" x2="590.00" y2="390.00" stroke="#34495e" stroke-width="2"/>
<line x1="290.00" y1="180.00" x2="323.33" y2="250.00" stroke="#34495e" stroke-width="2"/>
<line x1="590.00" y1="460.00" x2="556.67" y2="390.00" stroke="#34495e" stroke-width="2"/>
<line x1="256.67" y1="250.00" x2="245.56" y2="320.00" stroke="#34495e" stroke-width="2"/>
<line x1="623.33" y1="390.00" x2="634.44" y2="320.00" stroke="#34495e" stroke-width="2"/>
<line x1="256.67" y1="250.00" x2="256.67" y2="320.00" stroke="#34495e" stroke-width="2"/>
<line x1="623.33" y1="390.00" x2="623.33" y2="320.00" stroke="#34495e" stroke-width="2"/>
<line x1="256.67" y1="250.00" x2="267.78" y2="320.00" stroke="#34495e" stroke-width="2"/>
<line x1="623.33" y1="390.00" x2="612.22" y2="320.00" stroke="#34495e" stroke-width="2"/>
<line x1="290.00" y1="250.00" x2="278.89" y2="320.00" stroke="#34495e" stroke-width="2"/>
<line x1="590.00" y1="390.00" x2="601.11" y2="320.00" stroke="#34495e" stroke-width="2"/>
<line x1="290.00" y1="250.00" x2="290.00" y2="320.00" stroke="#34495e" stroke-width="2"/>
<line x1="590.00" y1="390.00" x2="590.00" y2="320.00" stroke="#34495e" stroke-width="2"/>
<line x1="290.00" y1="250.00" x2="301.11" y2="320.00" stroke="#34495e" stroke-width="2"/>
<line x1="590.00" y1="390.00" x2="578.89" y2="320.00" stroke="#34495e" stroke-width="2"/>
<line x1="323.33" y1="250.00" x2="312.22" y2="320.00" stroke="#34495e" stroke-width="2"/>
<line x1="556.67" y1="390.00" x2="567.78" y2="320.00" stroke="#34495e" stroke-width="2"/>
<line x1="323.33" y1="250.00" x2="323.33" y2="320.00" stroke="#34495e" stroke-width="2"/>
<line x1="556.67" y1="390.00" x2="556.67" y2="320.00" stroke="#34495e" stroke-width="2"/>
<line x1="323.33" y1="250.00" x2="334.44" y2="320.00" stroke="#34495e" stroke-width="2"/>
<line x1="556.67" y1="390.00" x2="545.56" y2="320.00" stroke="#34495e" stroke-width="2"/>
<line x1="390.00" y1="180.00" x2="356.67" y2="250.00" stroke="#34495e" stroke-width="2"/>
<line x1="490.00" y1="460.00" x2="523.33" y2="390.00" stroke="#34495e" stroke-width="2"/>
<line x1="390.00" y1="180.00" x2="390.00" y2="250.00" stroke="#34495e" stroke-width="2"/>
<line x1="490.00" y1="460.00" x2="490.00" y2="390.00" stroke="#34495e" stroke-width="2"/>
<line x1="390.00" y1="180.00" x2="423.33" y2="250.00" stroke="#34495e" stroke-width="2"/>
<line x1="490.00" y1="460.00" x2="456.67" y2="390.00" stroke="#34495e" stroke-width="2"/>
<line x1="356.67" y1="250.00" x2="345.56" y2="320.00" stroke="#34495e" stroke-width="2"/>
<line x1="523.33" y1="390.00" x2="534.44" y2="320.00" stroke="#34495e" stroke-width="2"/>
<line x1="356.67" y1="250.00" x2="356.67" y2="320.00" stroke="#34495e" stroke-width="2"/>
<line x1="523.33" y1="390.00" x2="523.33" y2="320.00" stroke="#34495e" stroke-width="2"/>
<line x1="356.67" y1="250.00" x2="367.78" y2="320.00" stroke="#34495e" stroke-width="2"/>
<line x1="523.33" y1="390.00" x2="512.22" y2="320.00" stroke="#34495e" stroke-width="2"/>
<line x1="390.00" y1="250.00" x2="378.89" y2="320.00" stroke="#34495e" stroke-width="2"/>
<line x1="490.00" y1="390.00" x2="501.11" y2="320.00" stroke="#34495e" stroke-width="2"/>
<line x1="390.00" y1="250.00" x2="390.00" y2="320.00" stroke="#34495e" stroke-width="2"/>
<line x1="490.00" y1="390.00" x2="490.00" y2="320.00" stroke="#34495e" stroke-width="2"/>
<line x1="390.00" y1="250.00" x2="401.11" y2="320.00" stroke="#34495e" stroke-width="2"/>
<line x1="490.00" y1="390.00" x2="478.89" y2="320.00" stroke="#34495e" stroke-width="2"/>
<line x1="423.33" y1="250.00" x2="412.22" y2="320.00" stroke="#34495e" stroke-width="2"/>
<line x1="456.67" y1="390.00" x2="467.78" y2="320.00" stroke="#34495e" stroke-width="2"/>
<line x1="423.33" y1="250.00" x2="423.33" y2="320.00" stroke="#34495e" stroke-width="2"/>
<line x1="456.67" y1="390.00" x2="456.67" y2="320.00" stroke="#34495e" stroke-width="2"/>
<line x1="423.33" y1="250.00" x2="434.44" y2="320.00" stroke="#34495e" stroke-width="2"/>
<line x1="456.67" y1="390.00" x2="445.56" y2="320.00" stroke="#34495e" stroke-width="2"/>
<line x1="640.00" y1="110.00" x2="473.33" y2="180.00" stroke="#34495e" stroke-width="2"/>
<line x1="240.00" y1="530.00" x2="406.67" y2="460.00" stroke="#34495e" stroke-width="2"/>
<line x1="640.00" y1="110.00" x2="540.00" y2="180.00" stroke="#34495e" stroke-width="2"/>
<line x1="240.00" y1="530.00" x2="340.00" y2="460.00" stroke="#34495e" stroke-width="2"/>
<line x1="640.00" y1="110.00" x2="606.67" y2="180.00" stroke="#34495e" stroke-width="2"/>
<line x1="240.00" y1="530.00" x2="273.33" y2="460.00" stroke="#34495e" stroke-width="2"/>
<line x1="640.00" y1="110.00" x2="673.33" y2="180.00" stroke="#34495e" stroke-width="2"/>
<line x1="240.00" y1="530.00" x2="206.67" y2="460.00" stroke="#34495e" stroke-width="2"/>
<line x1="640.00" y1="110.00" x2="740.00" y2="180.00" stroke="#34495e" stroke-width="2"/>
<line x1="240.00" y1="530.00" x2="140.00" y2="460.00" stroke="#34495e" stroke-width="2"/>
<line x1="640.00" y1="110.00" x2="806.67" y2="180.00" stroke="#34495e" stroke-width="2"/>
<line x1="240.00" y1="530.00" x2="73.33" y2="460.00" stroke="#34495e" stroke-width="2"/>
<line x1="473.33" y1="180.00" x2="445.56" y2="250.00" stroke="#34495e" stroke-width="2"/>
<line x1="406.67" y1="460.00" x2="434.44" y2="390.00" stroke="#34495e" stroke-width="2"/>
<line x1="473.33" y1="180.00" x2="456.67" y2="250.00" stroke="#34495e" stroke-width="2"/>
<line x1="406.67" y1="460.00" x2="423.33" y2="390.00" stroke="#34495e" stroke-width="2"/>
<line x1="473.33" y1="180.00" x2="467.78" y2="250.00" stroke="#34495e" stroke-width="2"/>
<line x1="406.67" y1="460.00" x2="412.22" y2="390.00" stroke="#34495e" stroke-width="2"/>
<line x1="473.33" y1="180.00" x2="478.89" y2="250.00" stroke="#34495e" stroke-width="2"/>
<line x1="406.67" y1="460.00" x2="401.11" y2="390.00" stroke="#34495e" stroke-width="2"/>
<line x1="473.33" y1="180.00" x2="490.00" y2="250.00" stroke="#34495e" stroke-width="2"/>
<line x1="406.67" y1="460.00" x2="390.00" y2="390.00" stroke="#34495e" stroke-width="2"/>
<line x1="473.33" y1="180.00" x2="501.11" y2="250.00" stroke="#34495e" stroke-width="2"/>
<line x1="406.67" y1="460.00" x2="378.89" y2="390.00" stroke="#34495e" stroke-width="2"/>
<line x1="540.00" y1="180.00" x2="512.22" y2="250.00" stroke="#34495e" stroke-width="2"/>
<line x1="340.00" y1="460.00" x2="367.78" y2="390.00" stroke="#34495e" stroke-width="2"/>
<line x1="540.00" y1="180.00" x2="523.33" y2="250.00" stroke="#34495e" stroke-width="2"/>
<line x1="340.00" y1="460.00" x2="356.67" y2="390.00" stroke="#34495e" stroke-width="2"/>
<line x1="540.00" y1="180.00" x2="534.44" y2="250.00" stroke="#34495e" stroke-width="2"/>
<line x1="340.00" y1="460.00" x2="345.56" y2="390.00" stroke="#34495e" stroke-width="2"/>
<line x1="540.00" y1="180.00" x2="545.56" y2="250.00" stroke="#34495e" stroke-width="2"/>
<line x1="340.00" y1="460.00" x2="334.44" y2="390.00" stroke="#34495e" stroke-width="2"/>
<line x1="540.00" y1="180.00" x2="556.67" y2="250.00" stroke="#34495e" stroke-width="2"/>
<line x1="340.00" y1="460.00" x2="323.33" y2="390.00" stroke="#34495e" stroke-width="2"/>
<line x1="540.00" y1="180.00" x2="567.78" y2="250.00" stroke="#34495e" stroke-width="2"/>
<line x1="340.00" y1="460.00" x2="312.22" y2="390.00" stroke="#34495e" stroke-width="2"/>
<line x1="606.67" y1="180.00" x2="578.89" y2="250.00" stroke="#34495e" stroke-width="2"/>
<line x1="273.33" y1="460.00" x2="301.11" y2="390.00" stroke="#34495e" stroke-width="2"/>
<line x1="606.67" y1="180.00" x2="590.00" y2="250.00" stroke="#34495e" stroke-width="2"/>
<line x1="273.33" y1="460.00" x2="290.00" y2="390.00" stroke="#34495e" stroke-width="2"/>
<line x1="606.67" y1="180.00" x2="601.11" y2="250.00" stroke="#34495e" stroke-width="2"/>
<line x1="273.33" y1="460.00" x2="278.89" y2="390.00" stroke="#34495e" stroke-width="2"/>
<line x1="606.67" y1="180.00" x2="612.22" y2="250.00" stroke="#34495e" stroke-width="2"/>
<line x1="273.33" y1="460.00" x2="267.78" y2="390.00" stroke="#34495e" stroke-width="2"/>
<line x1="606.67" y1="180.00" x2="623.33" y2="250.00" stroke="#34495e" stroke-width="2"/>
<line x1="273.33" y1="460.00" x2="256.67" y2="390.00" stroke="#34495e" stroke-width="2"/>
<line x1="606.67" y1="180.00" x2="634.44" y2="250.00" stroke="#34495e" stroke-width="2"/>
<line x1="273.33" y1="460.00" x2="245.56" y2="390.00" stroke="#34495e" stroke-width="2"/>
<line x1="673.33" y1="180.00" x2="645.56" y2="250.00" stroke="#34495e" stroke-width="2"/>
<line x1="206.67" y1="460.00" x2="234.44" y2="390.00" stroke="#34495e" stroke-width="2"/>
<line x1="673.33" y1="180.00" x2="656.67" y2="250.00" stroke="#34495e" stroke-width="2"/>
<line x1="206.67" y1="460.00" x2="223.33" y2="390.00" stroke="#34495e" stroke-width="2"/>
<line x1="673.33" y1="180.00" x2="667.78" y2="250.00" stroke="#34495e" stroke-width="2"/>
<line x1="206.67" y1="460.00" x2="212.22" y2="390.00" stroke="#34495e" stroke-width="2"/>
<line x1="673.33" y1="180.00" x2="678.89" y2="250.00" stroke="#34495e" stroke-width="2"/>
<line x1="206.67" y1="460.00" x2="201.11" y2="390.00" stroke="#34495e" stroke-width="2"/>
<line x1="673.33" y1="180.00" x2="690.00" y2="250.00" stroke="#34495e" stroke-width="2"/>
<line x1="206.67" y1="460.00" x2="190.00" y2="390.00" stroke="#34495e" stroke-width="2"/>
<line x1="673.33" y1="180.00" x2="701.11" y2="250.00" stroke="#34495e" stroke-width="2"/>
<line x1="206.67" y1="460.00" x2="178.89" y2="390.00" stroke="#34495e" stroke-width="2"/>
<line x1="740.00" y1="180.00" x2="712.22" y2="250.00" stroke="#34495e" stroke-width="2"/>
<line x1="140.00" y1="460.00" x2="167.78" y2="390.00" stroke="#34495e" stroke-width="2"/>
<line x1="740.00" y1="180.00" x2="723.33" y2="250.00" stroke="#34495e" stroke-width="2"/>
<line x1="140.00" y1="460.00" x2="156.67" y2="390.00" stroke="#34495e" stroke-width="2"/>
<line x1="740.00" y1="180.00" x2="734.44" y2="250.00" stroke="#34495e" stroke-width="2"/>
<line x1="140.00" y1="460.00" x2="145.56" y2="390.00" stroke="#34495e" stroke-width="2"/>
<line x1="740.00" y1="180.00" x2="745.56" y2="250.00" stroke="#34495e" stroke-width="2"/>
<line x1="140.00" y1="460.00" x2="134.44" y2="390.00" stroke="#34495e" stroke-width="2"/>
<line x1="740.00" y1="180.00" x2="756.67" y2="250.00" stroke="#34495e" stroke-width="2"/>
<line x1="140.00" y1="460.00" x2="123.33" y2="390.00" stroke="#34495e" stroke-width="2"/>
<line x1="740.00" y1="180.00" x2="767.78" y2="250.00" stroke="#34495e" stroke-width="2"/>
<line x1="140.00" y1="460.00" x2="112.22" y2="390.00" stroke="#34495e" stroke-width="2"/>
<line x1="806.67" y1="180.00" x2="778.89" y2="250.00" stroke="#34495e" stroke-width="2"/>
<line x1="73.33" y1="460.00" x2="101.11" y2="390.00" stroke="#34495e" stroke-width="2"/>
<line x1="806.67" y1="180.00" x2="790.00" y2="250.00" stroke="#34495e" stroke-width="2"/>
<line x1="73.33" y1="460.00" x2="90.00" y2="390.00" stroke="#34495e" stroke-width="2"/>
<line x1="806.67" y1="180.00" x2="801.11" y2="250.00" stroke="#34495e" stroke-width="2"/>
<line x1="73.33" y1="460.00" x2="78.89" y2="390.00" stroke="#34495e" stroke-width="2"/>
<line x1="806.67" y1="180.00" x2="812.22" y2="250.00" stroke="#34495e" stroke-width="2"/>
<line x1="73.33" y1="460.00" x2="67.78" y2="390.00" stroke="#34495e" stroke-width="2"/>
<line x1="806.67" y1="180.00" x2="823.33" y2="250.00" stroke="#34495e" stroke-width="2"/>
<line x1="73.33" y1="460.00" x2="56.67" y2="390.00" stroke="#34495e" stroke-width="2"/>
<line x1="806.67" y1="180.00" x2="834.44" y2="250.00" stroke="#34495e" stroke-width="2"/>
<line x1="73.33" y1="460.00" x2="45.56" y2="390.00" stroke="#34495e" stroke-width="2"/>
<circle cx="440.00" cy="40.00" r="6" fill="#e91e63" stroke="#2c3e50" stroke-width="1.5"/>
<circle cx="440.00" cy="600.00" r="6" fill="#e91e63" stroke="#2c3e50" stroke-width="1.5"/>
<circle cx="240.00" cy="110.00" r="6" fill="#e91e63" stroke="#2c3e50" stroke-width="1.5"/>
<circle cx="640.00" cy="530.00" r="6" fill="#e91e63" stroke="#2c3e50" stroke-width="1.5"/>
<circle cx="90.00" cy="180.00" r="6" fill="#e91e63" stroke="#2c3e50" stroke-width="1.5"/>
<circle cx="790.00" cy="460.00" r="6" fill="#e91e63" stroke="#2c3e50" stroke-width="1.5"/>
<circle cx="56.67" cy="250.00" r="6" fill="#e91e63" stroke="#2c3e50" stroke-width="1.5"/>
<circle cx="823.33" cy="390.00" r="6" fill="#e91e63" stroke="#2c3e50" stroke-width="1.5"/>
<circle cx="45.56" cy="320.00" r="6" fill="#e91e63" stroke="#2c3e50" stroke-width="1.5"/>
<circle cx="834.44" cy="320.00" r="6" fill="#e91e63" stroke="#2c3e50" stroke-width="1.5"/>
<circle cx="56.67" cy="320.00" r="6" fill="#e91e63" stroke="#2c3e50" stroke-width="1.5"/>
<circle cx="823.33" cy="320.00" r="6" fill="#e91e63" stroke="#2c3e50" stroke-width="1.5"/>
<circle cx="67.78" cy="320.00" r="6" fill="#e91e63" stroke="#2c3e50" stroke-width="1.5"/>
<circle cx="812.22" cy="320.00" r="6" fill="#e91e63" stroke="#2c3e50" stroke-width="1.5"/>
<circle cx="90.00" cy="250.00" r="6" fill="#e91e63" stroke="#2c3e50" stroke-width="1.5"/>
<circle cx="790.00" cy="390.00" r="6" fill="#e91e63" stroke="#2c3e50" stroke-width="1.5"/>
<circle cx="78.89" cy="320.00" r="6" fill="#e91e63" stroke="#2c3e50" stroke-width="1.5"/>
<circle cx="801.11" cy="320.00" r="6" fill="#e91e63" stroke="#2c3e50" stroke-width="1.5"/>
<circle cx="90.00" cy="320.00" r="6" fill="#e91e63" stroke="#2c3e50" stroke-width="1.5"/>
<circle cx="790.00" cy="320.00" r="6" fill="#e91e63" stroke="#2c3e50" stroke-width="1.5"/>
<circle cx="101.11" cy="320.00" r="6" fill="#e91e63" stroke="#2c3e50" stroke-width="1.5"/>
<circle cx="778.89" cy="320.00" r="6" fill="#e91e63" stroke="#2c3e50" stroke-width="1.5"/>
<circle cx="123.33" cy="250.00" r="6" fill="#e91e63" stroke="#2c3e50" stroke-width="1.5"/>
<circle cx="756.67" cy="390.00" r="6" fill="#e91e63" stroke="#2c3e50" stroke-width="1.5"/>
<circle cx="112.22" cy="320.00" r="6" fill="#e91e63" stroke="#2c3e50" stroke-width="1.5"/>
<circle cx="767.78" cy="320.00" r="6" fill="#e91e63" stroke="#2c3e50" stroke-width="1.5"/>
<circle cx="123.33" cy="320.00" r="6" fill="#e91e63" stroke="#2c3e50" stroke-width="1.5"/>
<circle cx="756.67" cy="320.00" r="6" fill="#e91e63" stroke="#2c3e50" stroke-width="1.5"/>
<circle cx="134.44" cy="320.00" r="6" fill="#e91e63" stroke="#2c3e50" stroke-width="1.5"/>
<circle cx="745.56" cy="320.00" r="6" fill="#e91e63" stroke="#2c3e50" stroke-width="1.5"/>
<circle cx="190.00" cy="180.00" r="6" fill="#e91e63" stroke="#2c3e50" stroke-width="1.5"/>
<circle cx="690.00" cy="460.00" r="6" fill="#e91e63" stroke="#2c3e50" stroke-width="1.5"/>
<circle cx="156.67" cy="250.00" r="6" fill="#e91e63" stroke="#2c3e50" stroke-width="1.5"/>
<circle cx="723.33" cy="390.00" r="6" fill="#e91e63" stroke="#2c3e50" stroke-width="1.5"/>
<circle cx="145.56" cy="320.00" r="6" fill="#e91e63" stroke="#2c3e50" stroke-width="1.5"/>
<circle cx="734.44" cy="320.00" r="6" fill="#e91e63" stroke="#2c3e50" stroke-width="1.5"/>
<circle cx="156.67" cy="320.00" r="6" fill="#e91e63" stroke="#2c3e50" stroke-width="1.5"/>
<circle cx="723.33" cy="320.00" r="6" fill="#e91e63" stroke="#2c3e50" stroke-width="1.5"/>
<circle cx="167.78" cy="320.00" r="6" fill="#e91e63" stroke="#2c3e50" stroke-width="1.5"/>
<circle cx="712.22" cy="320.00" r="6" fill="#e91e63" stroke="#2c3e50" stroke-width="1.5"/>
<circle cx="190.00" cy="250.00" r="6" fill="#e91e63" stroke="#2c3e50" stroke-width="1.5"/>
<circle cx="690.00" cy="390.00" r="6" fill="#e91e63" stroke="#2c3e50" stroke-width="1.5"/>
<circle cx="178.89" cy="320.00" r="6" fill="#e91e63" stroke="#2c3e50" stroke-width="1.5"/>
<circle cx="701.11" cy="320.00" r="6" fill="#e91e63" stroke="#2c3e50" stroke-width="1.5"/>
<circle cx="190.00" cy="320.00" r="6" fill="#e91e63" stroke="#2c3e50" stroke-width="1.5"/>
<circle cx="690.00" cy="320.00" r="6" fill="#e91e63" stroke="#2c3e50" stroke-width="1.5"/>
<circle cx="201.11" cy="320.00" r="6" fill="#e91e63" stroke="#2c3e50" stroke-width="1.5"/>
<circle cx="678.89" cy="320.00" r="6" fill="#e91e63" stroke="#2c3e50" stroke-width="1.5"/>
<circle cx="223.33" cy="250.00" r="6" fill="#e91e63" stroke="#2c3e50" stroke-width="1.5"/>
<circle cx="656.67" cy="390.00" r="6" fill="#e91e63" stroke="#2c3e50" stroke-width="1.5"/>
<circle cx="212.22" cy="320.00" r="6" fill="#e91e63" stroke="#2c3e50" stroke-width="1.5"/>
<circle cx="667.78" cy="320.00" r="6" fill="#e91e63" stroke="#2c3e50" stroke-width="1.5"/>
<circle cx="223.33" cy="320.00" r="6" fill="#e91e63" stroke="#2c3e50" stroke-width="1.5"/>
<circle cx="656.67" cy="320.00" r="6" fill="#e91e63" stroke="#2c3e50" stroke-width="1.5"/>
<circle cx="234.44" cy="320.00" r="6" fill="#e91e63" stroke="#2c3e50" stroke-width="1.5"/>
<circle cx="645.56" cy="320.00" r="6" fill="#e91e63" stroke="#2c3e50" stroke-width="1.5"/>
<circle cx="290.00" cy="180.00" r="6" fill="#e91e63" stroke="#2c3e50" stroke-width="1.5"/>
<circle cx="590.00" cy="460.00" r="6" fill="#e91e63" stroke="#2c3e50" stroke-width="1.5"/>
<circle cx="256.67" cy="250.00" r="6" fill="#e91e63" stroke="#2c3e50" stroke-width="1.5"/>
<circle cx="623.33" cy="390.00" r="6" fill="#e91e63" stroke="#2c3e50" stroke-width="1.5"/>
<circle cx="245.56" cy="320.00" r="6" fill="#e91e63" stroke="#2c3e50" stroke-width="1.5"/>
<circle cx="634.44" cy="320.00" r="6" fill="#e91e63" stroke="#2c3e50" stroke-width="1.5"/>
<circle cx="256.67" cy="320.00" r="6" fill="#e91e63" stroke="#2c3e50" stroke-width="1.5"/>
<circle cx="623.33" cy="320.00" r="6" fill="#e91e63" stroke="#2c3e50" stroke-width="1.5"/>
<circle cx="267.78" cy="320.00" r="6" fill="#e91e63" stroke="#2c3e50" stroke-width="1.5"/>
<circle cx="612.22" cy="320.00" r="6" fill="#e91e63" stroke="#2c3e50" stroke-width="1.5"/>
<circle cx="290.00" cy="250.00" r="6" fill="#e91e63" stroke="#2c3e50" stroke-width="1.5"/>
<circle cx="590.00" cy="390.00" r="6" fill="#e91e63" stroke="#2c3e50" stroke-width="1.5"/>
<circle cx="278.89" cy="320.00" r="6" fill="#e91e63" stroke="#2c3e50" stroke-width="1.5"/>
<circle cx="601.11" cy="320.00" r="6" fill="#e91e63" stroke="#2c3e50" stroke-width="1.5"/>
<circle cx="290.00" cy="320.00" r="6" fill="#e91e63" stroke="#2c3e50" stroke-width="1.5"/>
<circle cx="590.00" cy="320.00" r="6" fill="#e91e63" stroke="#2c3e50" stroke-width="1.5"/>
<circle cx="301.11" cy="320.00" r="6" fill="#e91e63" stroke="#2c3e50" stroke-width="1.5"/>
<circle cx="578.89" cy="320.00" r="6" fill="#e91e63" stroke="#2c3e50" stroke-width="1.5"/>
<circle cx="323.33" cy="250.00" r="6" fill="#e91e63" stroke="#2c3e50" stroke-width="1.5"/>
<circle cx="556.67" cy="390.00" r="6" fill="#e91e63" stroke="#2c3e50" stroke-width="1.5"/>
<circle cx="312.22" cy="320.00" r="6" fill="#e91e63" stroke="#2c3e50" stroke-width="1.5"/>
<circle cx="567.78" cy="320.00" r="6" fill="#e91e63" stroke="#2c3e50" stroke-width="1.5"/>
<circle cx="323.33" cy="320.00" r="6" fill="#e91e63" stroke="#2c3e50" stroke-width="1.5"/>
<circle cx="556.67" cy="320.00" r="6" fill="#e91e63" stroke="#2c3e50" stroke-width="1.5"/>
<circle cx="334.44" cy="320.00" r="6" fill="#e91e63" stroke="#2c3e50" stroke-width="1.5"/>
<circle cx="545.56" cy="320.00" r="6" fill="#e91e63" stroke="#2c3e50" stroke-width="1.5"/>
<circle cx="390.00" cy="180.00" r="6" fill="#e91e63" stroke="#2c3e50" stroke-width="1.5"/>
<circle cx="490.00" cy="460.00" r="6" fill="#e91e63" stroke="#2c3e50" stroke-width="1.5"/>
<circle cx="356.67" cy="250.00" r="6" fill="#e91e63" stroke="#2c3e50" stroke-width="1.5"/>
<circle cx="523.33" cy="390.00" r="6" fill="#e91e63" stroke="#2c3e50" stroke-width="1.5"/>
<circle cx="345.56" cy="320.00" r="6" fill="#e91e63" stroke="#2c3e50" stroke-width="1.5"/>
<circle cx="534.44" cy="320.00" r="6" fill="#e91e63" stroke="#2c3e50" stroke-width="1.5"/>
<circle cx="356.67" cy="320.00" r="6" fill="#e91e63" stroke="#2c3e50" stroke-width="1.5"/>
<circle cx="523.33" cy="320.00" r="6" fill="#e91e63" stroke="#2c3e50" stroke-width="1.5"/>
<circle cx="367.78" cy="320.00" r="6" fill="#e91e63" stroke="#2c3e50" stroke-width="1.5"/>
<circle cx="512.22" cy="320.00" r="6" fill="#e91e63" stroke="#2c3e50" stroke-width="1.5"/>
<circle cx="390.00" cy="250.00" r="6" fill="#e91e63" stroke="#2c3e50" stroke-width="1.5"/>
<circle cx="490.00" cy="390.00" r="6" fill="#e91e63" stroke="#2c3e50" stroke-width="1.5"/>
<circle cx="378.89" cy="320.00" r="6" fill="#e91e63" stroke="#2c3e50" stroke-width="1.5"/>
<circle cx="501.11" cy="320.00" r="6" fill="#e91e63" stroke="#2c3e50" stroke-width="1.5"/>
<circle cx="390.00" cy="320.00" r="6" fill="#e91e63" stroke="#2c3e50" stroke-width="1.5"/>
<circle cx="490.00" cy="320.00" r="6" fill="#e91e63" stroke="#2c3e50" stroke-width="1.5"/>
<circle cx="401.11" cy="320.00" r="6" fill="#e91e63" stroke="#2c3e50" stroke-width="1.5"/>
<circle cx="478.89" cy="320.00" r="6" fill="#e91e63" stroke="#2c3e50" stroke-width="1.5"/>
<circle cx="423.33" cy="250.00" r="6" fill="#e91e63" stroke="#2c3e50" stroke-width="1.5"/>
<circle cx="456.67" cy="390.00" r="6" fill="#e91e63" stroke="#2c3e50" stroke-width="1.5"/>
<circle cx="412.22" cy="320.00" r="6" fill="#e91e63" stroke="#2c3e50" stroke-width="1.5"/>
<circle cx="467.78" cy="320.00" r="6" fill="#e91e63" stroke="#2c3e50" stroke-width="1.5"/>
<circle cx="423.33" cy="320.00" r="6" fill="#e91e63" stroke="#2c3e50" stroke-width="1.5"/>
<circle cx="456.67" cy="320.00" r="6" fill="#e91e63" stroke="#2c3e50" stroke-width="1.5"/>
<circle cx="434.44" cy="320.00" r="6" fill="#e91e63" stroke="#2c3e50" stroke-width="1.5"/>
<circle cx="445.56" cy="320.00" r="6" fill="#e91e63" stroke="#2c3e50" stroke-width="1.5"/>
<circle cx="640.00" cy="110.00" r="6" fill="#e91e63" stroke="#2c3e50" stroke-width="1.5"/>
<circle cx="240.00" cy="530.00" r="6" fill="#e91e63" stroke="#2c3e50" stroke-width="1.5"/>
<circle cx="473.33" cy="180.00" r="6" fill="#e91e63" stroke="#2c3e50" stroke-width="1.5"/>
<circle cx="406.67" cy="460.00" r="6" fill="#e91e63" stroke="#2c3e50" stroke-width="1.5"/>
<circle cx="445.56" cy="250.00" r="6" fill="#e91e63" stroke="#2c3e50" stroke-width="1.5"/>
<circle cx="434.44" cy="390.00" r="6" fill="#e91e63" stroke="#2c3e50" stroke-width="1.5"/>
<circle cx="456.67" cy="250.00" r="6" fill="#e91e63" stroke="#2c3e50" stroke-width="1.5"/>
<circle cx="423.33" cy="390.00" r="6" fill="#e91e63" stroke="#2c3e50" stroke-width="1.5"/>
<circle cx="467.78" cy="250.00" r="6" fill="#e91e63" stroke="#2c3e50" stroke-width="1.5"/>
<circle cx="412.22" cy="390.00" r="6" fill="#e91e63" stroke="#2c3e50" stroke-width="1.5"/>
<circle cx="478.89" cy="250.00" r="6" fill="#e91e63" stroke="#2c3e50" stroke-width="1.5"/>
<circle cx="401.11" cy="390.00" r="6" fill="#e91e63" stroke="#2c3e50" stroke-width="1.5"/>
<circle cx="490.00" cy="250.00" r="6" fill="#e91e63" stroke="#2c3e50" stroke-width="1.5"/>
<circle cx="390.00" cy="390.00" r="6" fill="#e91e63" stroke="#2c3e50" stroke-width="1.5"/>
<circle cx="501.11" cy="250.00" r="6" fill="#e91e63" stroke="#2c3e50" stroke-width="1.5"/>
<circle cx="378.89" cy="390.00" r="6" fill="#e91e63" stroke="#2c3e50" stroke-width="1.5"/>
<circle cx="540.00" cy="180.00" r="6" fill="#e91e63" stroke="#2c3e50" stroke-width="1.5"/>
<circle cx="340.00" cy="460.00" r="6" fill="#e91e63" stroke="#2c3e50" stroke-width="1.5"/>
<circle cx="512.22" cy="250.00" r="6" fill="#e91e63" stroke="#2c3e50" stroke-width="1.5"/>
<circle cx="367.78" cy="390.00" r="6" fill="#e91e63" stroke="#2c3e50" stroke-width="1.5"/>
<circle cx="523.33" cy="250.00" r="6" fill="#e91e63" stroke="#2c3e50" stroke-width="1.5"/>
<circle cx="356.67" cy="390.00" r="6" fill="#e91e63" stroke="#2c3e50" stroke-width="1.5"/>
<circle cx="534.44" cy="250.00" r="6" fill="#e91e63" stroke="#2c3e50" stroke-width="1.5"/>
<circle cx="345.56" cy="390.00" r="6" fill="#e91e63" stroke="#2c3e50" stroke-width="1.5"/>
<circle cx="545.56" cy="250.00" r="6" fill="#e91e63" stroke="#2c3e50" stroke-width="1.5"/>
<circle cx="334.44" cy="390.00" r="6" fill="#e91e63" stroke="#2c3e50" stroke-width="1.5"/>
<circle cx="556.67" cy="250.00" r="6" fill="#e91e63" stroke="#2c3e50" stroke-width="1.5"/>
<circle cx="323.33" cy="390.00" r="6" fill="#e91e63" stroke="#2c3e50" stroke-width="1.5"/>
<circle cx="567.78" cy="250.00" r="6" fill="#e91e63" stroke="#2c3e50" stroke-width="1.5"/>
<circle cx="312.22" cy="390.00" r="6" fill="#e91e63" stroke="#2c3e50" stroke-width="1.5"/>
<circle cx="606.67" cy="180.00" r="6" fill="#e91e63" stroke="#2c3e50" stroke-width="1.5"/>
<circle cx="273.33" cy="460.00" r="6" fill="#e91e63" stroke="#2c3e50" stroke-width="1.5"/>
<circle cx="578.89" cy="250.00" r="6" fill="#e91e63" stroke="#2c3e50" stroke-width="1.5"/>
<circle cx="301.11" cy="390.00" r="6" fill="#e91e63" stroke="#2c3e50" stroke-width="1.5"/>
<circle cx="590.00" cy="250.00" r="6" fill="#e91e63" stroke="#2c3e50" stroke-width="1.5"/>
<circle cx="290.00" cy="390.00" r="6" fill="#e91e63" stroke="#2c3e50" stroke-width="1.5"/>
<circle cx="601.11" cy="250.00" r="6" fill="#e91e63" stroke="#2c3e50" stroke-width="1.5"/>
<circle cx="278.89" cy="390.00" r="6" fill="#e91e63" stroke="#2c3e50" stroke-width="1.5"/>
<circle cx="612.22" cy="250.00" r="6" fill="#e91e63" stroke="#2c3e50" stroke-width="1.5"/>
<circle cx="267.78" cy="390.00" r="6" fill="#e91e63" stroke="#2c3e50" stroke-width="1.5"/>
<circle cx="623.33" cy="250.00" r="6" fill="#e91e63" stroke="#2c3e50" stroke-width="1.5"/>
<circle cx="256.67" cy="390.00" r="6" fill="#e91e63" stroke="#2c3e50" stroke-width="1.5"/>
<circle cx="634.44" cy="250.00" r="6" fill="#e91e63" stroke="#2c3e50" stroke-width="1.5"/>
<circle cx="245.56" cy="390.00" r="6" fill="#e91e63" stroke="#2c3e50" stroke-width="1.5"/>
<circle cx="673.33" cy="180.00" r="6" fill="#e91e63" stroke="#2c3e50" stroke-width="1.5"/>
<circle cx="206.67" cy="460.00" r="6" fill="#e91e63" stroke="#2c3e50" stroke-width="1.5"/>
<circle cx="645.56" cy="250.00" r="6" fill="#e91e63" stroke="#2c3e50" stroke-width="1.5"/>
<circle cx="234.44" cy="390.00" r="6" fill="#e91e63" stroke="#2c3e50" stroke-width="1.5"/>
<circle cx="656.67" cy="250.00" r="6" fill="#e91e63" stroke="#2c3e50" stroke-width="1.5"/>
<circle cx="223.33" cy="390.00" r="6" fill="#e91e63" stroke="#2c3e50" stroke-width="1.5"/>
<circle cx="667.78" cy="250.00" r="6" fill="#e91e63" stroke="#2c3e50" stroke-width="1.5"/>
<circle cx="212.22" cy="390.00" r="6" fill="#e91e63" stroke="#2c3e50" stroke-width="1.5"/>
<circle cx="678.89" cy="250.00" r="6" fill="#e91e63" stroke="#2c3e50" stroke-width="1.5"/>
<circle cx="201.11" cy="390.00" r="6" fill="#e91e63" stroke="#2c3e50" stroke-width="1.5"/>
<circle cx="690.00" cy="250.00" r="6" fill="#e91e63" stroke="#2c3e50" stroke-width="1.5"/>
<circle cx="190.00" cy="390.00" r="6" fill="#e91e63" stroke="#2c3e50" stroke-width="1.5"/>
<circle cx="701.11" cy="250.00" r="6" fill="#e91e63" stroke="#2c3e50" stroke-width="1.5"/>
<circle cx="178.89" cy="390.00" r="6" fill="#e91e63" stroke="#2c3e50" stroke-width="1.5"/>
<circle cx="740.00" cy="180.00" r="6" fill="#e91e63" stroke="#2c3e50" stroke-width="1.5"/>
<circle cx="140.00" cy="460.00" r="6" fill="#e91e63" stroke="#2c3e50" stroke-width="1.5"/>
<circle cx="712.22" cy="250.00" r="6" fill="#e91e63" stroke="#2c3e50" stroke-width="1.5"/>
<circle cx="167.78" cy="390.00" r="6" fill="#e91e63" stroke="#2c3e50" stroke-width="1.5"/>
<circle cx="723.33" cy="250.00" r="6" fill="#e91e63" stroke="#2c3e50" stroke-width="1.5"/>
<circle cx="156.67" cy="390.00" r="6" fill="#e91e63" stroke="#2c3e50" stroke-width="1.5"/>
<circle cx="734.44" cy="250.00" r="6" fill="#e91e63" stroke="#2c3e50" stroke-width="1.5"/>
<circle cx="145.56" cy="390.00" r="6" fill="#e91e63" stroke="#2c3e50" stroke-width="1.5"/>
<circle cx="745.56" cy="250.00" r="6" fill="#e91e63" stroke="#2c3e50" stroke-width="1.5"/>
<circle cx="134.44" cy="390.00" r="6" fill="#e91e63" stroke="#2c3e50" stroke-width="1.5"/>
<circle cx="756.67" cy="250.00" r="6" fill="#e91e63" stroke="#2c3e50" stroke-width="1.5"/>
<circle cx="123.33" cy="390.00" r="6" fill="#e91e63" stroke="#2c3e50" stroke-width="1.5"/>
<circle cx="767.78" cy="250.00" r="6" fill="#e91e63" stroke="#2c3e50" stroke-width="1.5"/>
<circle cx="112.22" cy="390.00" r="6" fill="#e91e63" stroke="#2c3e50" stroke-width="1.5"/>
<circle cx="806.67" cy="180.00" r="6" fill="#e91e63" stroke="#2c3e50" stroke-width="1.5"/>
<circle cx="73.33" cy="460.00" r="6" fill="#e91e63" stroke="#2c3e50" stroke-width="1.5"/>
<circle cx="778.89" cy="250.00" r="6" fill="#e91e63" stroke="#2c3e50" stroke-width="1.5"/>
<circle cx="101.11" cy="390.00" r="6" fill="#e91e63" stroke="#2c3e50" stroke-width="1.5"/>
<circle cx="790.00" cy="250.00" r="6" fill="#e91e63" stroke="#2c3e50" stroke-width="1.5"/>
<circle cx="90.00" cy="390.00" r="6" fill="#e91e63" stroke="#2c3e50" stroke-width="1.5"/>
<circle cx="801.11" cy="250.00" r="6" fill="#e91e63" stroke="#2c3e50" stroke-width="1.5"/>
<circle cx="78.89" cy="390.00" r="6" fill="#e91e63" stroke="#2c3e50" stroke-width="1.5"/>
<circle cx="812.22" cy="250.00" r="6" fill="#e91e63" stroke="#2c3e50" stroke-width="1.5"/>
<circle cx="67.78" cy="390.00" r="6" fill="#e91e63" stroke="#2c3e50" stroke-width="1.5"/>
<circle cx="823.33" cy="250.00" r="6" fill="#e91e63" stroke="#2c3e50" stroke-width="1.5"/>
<circle cx="56.67" cy="390.00" r="6" fill="#e91e63" stroke="#2c3e50" stroke-width="1.5"/>
<circle cx="834.44" cy="250.00" r="6" fill="#e91e63" stroke="#2c3e50" stroke-width="1.5"/>
<circle cx="45.56" cy="390.00" r="6" fill="#e91e63" stroke="#2c3e50" stroke-width="1.5"/>
</svg>