<svg xmlns="http://www.w3.org/2000/svg" width="880" height="500" viewBox="0 0 880 500">
<rect x="0" y="0" width="100%" height="100%" fill="white"/>
<line x1="0" y1="250" x2="880" y2="250" stroke="#cccccc" stroke-width="1" stroke-dasharray="4 4"/>
<line x1="440.00" y1="40.00" x2="140.00" y2="110.00" stroke="#34495e" stroke-width="2"/>
<line x1="440.00" y1="460.00" x2="740.00" y2="390.00" stroke="#34495e" stroke-width="2"/>
<line x1="440.00" y1="40.00" x2="340.00" y2="110.00" stroke="#34495e" stroke-width="2"/>
<line x1="440.00" y1="460.00" x2="540.00" y2="390.00" stroke="#34495e" stroke-width="2"/>
<line x1="440.00" y1="40.00" x2="540.00" y2="110.00" stroke="#34495e" stroke-width="2"/>
<line x1="440.00" y1="460.00" x2="340.00" y2="390.00" stroke="#34495e" stroke-width="2"/>
<line x1="440.00" y1="40.00" x2="740.00" y2="110.00" stroke="#34495e" stroke-width="2"/>
<line x1="440.00" y1="460.00" x2="140.00" y2="390.00" stroke="#34495e" stroke-width="2"/>
<line x1="140.00" y1="110.00" x2="73.33" y2="180.00" stroke="#34495e" stroke-width="2"/>
<line x1="740.00" y1="390.00" x2="806.67" y2="320.00" stroke="#34495e" stroke-width="2"/>
<line x1="140.00" y1="110.00" x2="140.00" y2="180.00" stroke="#34495e" stroke-width="2"/>
<line x1="740.00" y1="390.00" x2="740.00" y2="320.00" stroke="#34495e" stroke-width="2"/>
<line x1="140.00" y1="110.00" x2="206.67" y2="180.00" stroke="#34495e" stroke-width="2"/>
<line x1="740.00" y1="390.00" x2="673.33" y2="320.00" stroke="#34495e" stroke-width="2"/>
<line x1="340.00" y1="110.00" x2="290.00" y2="180.00" stroke="#34495e" stroke-width="2"/>
<line x1="540.00" y1="390.00" x2="590.00" y2="320.00" stroke="#34495e" stroke-width="2"/>
<line x1="340.00" y1="110.00" x2="390.00" y2="180.00" stroke="#34495e" stroke-width="2"/>
<line x1="540.00" y1="390.00" x2="490.00" y2="320.00" stroke="#34495e" stroke-width="2"/>
<line x1="290.00" y1="180.00" x2="265.00" y2="250.00" stroke="#34495e" stroke-width="2"/>
<line x1="590.00" y1="320.00" x2="615.00" y2="250.00" stroke="#34495e" stroke-width="2"/>
<line x1="290.00" y1="180.00" x2="315.00" y2="250.00" stroke="#34495e" stroke-width="2"/>
<line x1="590.00" y1="320.00" x2="565.00" y2="250.00" stroke="#34495e" stroke-width="2"/>
<line x1="390.00" y1="180.00" x2="365.00" y2="250.00" stroke="#34495e" stroke-width="2"/>
<line x1="490.00" y1="320.00" x2="515.00" y2="250.00" stroke="#34495e" stroke-width="2"/>
<line x1="390.00" y1="180.00" x2="415.00" y2="250.00" stroke="#34495e" stroke-width="2"/>
<line x1="490.00" y1="320.00" x2="465.00" y2="250.00" stroke="#34495e" stroke-width="2"/>
<line x1="540.00" y1="110.00" x2="465.00" y2="180.00" stroke="#34495e" stroke-width="2"/>
<line x1="340.00" y1="390.00" x2="415.00" y2="320.00" stroke="#34495e" stroke-width="2"/>
<line x1="540.00" y1="110.00" x2="515.00" y2="180.00" stroke="#34495e" stroke-width="2"/>
<line x1="340.00" y1="390.00" x2="365.00" y2="320.00" stroke="#34495e" stroke-width="2"/>
<line x1="540.00" y1="110.00" x2="565.00" y2="180.00" stroke="#34495e" stroke-width="2"/>
<line x1="340.00" y1="390.00" x2="315.00" y2="320.00" stroke="#34495e" stroke-width="2"/>
<line x1="540.00" y1="110.00" x2="615.00" y2="180.00" stroke="#34495e" stroke-width="2"/>
<line x1="340.00" y1="390.00" x2="265.00" y2="320.00" stroke="#34495e" stroke-width="2"/>
<line x1="740.00" y1="110.00" x2="673.33" y2="180.00" stroke="#34495e" stroke-width="2"/>
<line x1="140.00" y1="390.00" x2="206.67" y2="320.00" stroke="#34495e" stroke-width="2"/>
<line x1="740.00" y1="110.00" x2="740.00" y2="180.00" stroke="#34495e" stroke-width="2"/>
<line x1="140.00" y1="390.00" x2="140.00" y2="320.00" stroke="#34495e" stroke-width="2"/>
<line x1="740.00" y1="110.00" x2="806.67" y2="180.00" stroke="#34495e" stroke-width="2"/>
<line x1="140.00" y1="390.00" x2="73.33" y2="320.00" stroke="#34495e" stroke-width="2"/>
<circle cx="440.00" cy="40.00" r="6" fill="#e91e63" stroke="#2c3e50" stroke-width="1.5"/>
<circle cx="440.00" cy="460.00" r="6" fill="#e91e63" stroke="#2c3e50" stroke-width="1.5"/>
<circle cx="140.00" cy="110.00" r="6" fill="#e91e63" stroke="#2c3e50" stroke-width="1.5"/>
<circle cx="740.00" cy="390.00" r="6" fill="#e91e63" stroke="#2c3e50" stroke-width="1.5"/>
<circle cx="73.33" cy="180.00" r="6" fill="#e91e63" stroke="#2c3e50" stroke-width="1.5"/>
<circle cx="806.67" cy="320.00" r="6" fill="#e91e63" stroke="#2c3e50" stroke-width="1.5"/>
<circle cx="140.00" cy="180.00" r="6" fill="#e91e63" stroke="#2c3e50" stroke-width="1.5"/>
<circle cx="740.00" cy="320.00" r="6" fill="#e91e63" stroke="#2c3e50" stroke-width="1.5"/>
<circle cx="206.67" cy="180.00" r="6" fill="#e91e63" stroke="#2c3e50" stroke-width="1.5"/>
<circle cx="673.33" cy="320.00" r="6" fill="#e91e63" stroke="#2c3e50" stroke-width="1.5"/>
<circle cx="340.00" cy="110.00" r="6" fill="#e91e63" stroke="#2c3e50" stroke-width="1.5"/>
<circle cx="540.00" cy="390.00" r="6" fill="#e91e63" stroke="#2c3e50" stroke-width="1.5"/>
<circle cx="290.00" cy="180.00" r="6" fill="#e91e63" stroke="#2c3e50" stroke-width="1.5"/>
<circle cx="590.00" cy="320.00" r="6" fill="#e91e63" stroke="#2c3e50" stroke-width="1.5"/>
<circle cx="265.00" cy="250.00" r="6" fill="#e91e63" stroke="#2c3e50" stroke-width="1.5"/>
<circle cx="615.00" cy="250.00" r="6" fill="#e91e63" stroke="#2c3e50" stroke-width="1.5"/>
<circle cx="315.00" cy="250.00" r="6" fill="#e91e63" stroke="#2c3e50" stroke-width="1.5"/>
<circle cx="565.00" cy="250.00" r="6" fill="#e91e63" stroke="#2c3e50" stroke-width="1.5"/>
<circle cx="390.00" cy="180.00" r="6" fill="#e91e63" stroke="#2c3e50" stroke-width="1.5"/>
<circle cx="490.00" cy="320.00" r="6" fill="#e91e63" stroke="#2c3e50" stroke-width="1.5"/>
<circle cx="365.00" cy="250.00" r="6" fill="#e91e63" stroke="#2c3e50" stroke-width="1.5"/>
<circle cx="515.00" cy="250.00" r="6" fill="#e91e63" stroke="#2c3e50" stroke-width="1.5"/>
<circle cx="415.00" cy="250.00" r="6" fill="#e91e63" stroke="#2c3e50" stroke-width="1.5"/>
<circle cx="465.00" cy="250.00" r="6" fill="#e91e63" stroke="#2c3e50" stroke-width="1.5"/>
<circle cx="540.00" cy="110.00" r="6" fill="#e91e63" stroke="#2c3e50" stroke-width="1.5"/>
<circle cx="340.00" cy="390.00" r="6" fill="#e91e63" stroke="#2c3e50" stroke-width="1.5"/>
<circle cx="465.00" cy="180.00" r="6" fill="#e91e63" stroke="#2c3e50" stroke-width="1.5"/>
<circle cx="415.00" cy="320.00" r="6" fill="#e91e63" stroke="#2c3e50" stroke-width="1.5"/>
<circle cx="515.00" cy="180.00" r="6" fill="#e91e63" stroke="#2c3e50" stroke-width="1.5"/>
<circle cx="365.00" cy="320.00" r="6" fill="#e91e63" stroke="#2c3e50" stroke-width="1.5"/>
<circle cx="565.00" cy="180.00" r="6" fill="#e91e63" stroke="#2c3e50" stroke-width="1.5"/>
<circle cx="315.00" cy="320.00" r="6" fill="#e91e63" stroke="#2c3e50" stroke-width="1.5"/>
<circle cx="615.00" cy="180.00" r="6" fill="#e91e63" stroke="#2c3e50" stroke-width="1.5"/>
<circle cx="265.00" cy="320.00" r="6" fill="#e91e63" stroke="#2c3e50" stroke-width="1.5"/>
<circle cx="740.00" cy="110.00" r="6" fill="#e91e63" stroke="#2c3e50" stroke-width="1.5"/>
<circle cx="140.00" cy="390.00" r="6" fill="#e91e63" stroke="#2c3e50" stroke-width="1.5"/>
<circle cx="673.33" cy="180.00" r="6" fill="#e91e63" stroke="#2c3e50" stroke-width="1.5"/>
<circle cx="206.67" cy="320.00" r="6" fill="#e91e63" stroke="#2c3e50" stroke-width="1.5"/>
<circle cx="740.00" cy="180.00" r="6" fill="#e91e63" stroke="#2c3e50" stroke-width="1.5"/>
<circle cx="140.00" cy="320.00" r="6" fill="#e91e63" stroke="#2c3e50" stroke-width="1.5"/>
<circle cx="806.67" cy="180.00" r="6" fill="#e91e63" stroke="#2c3e50" stroke-width="1.5"/>
<circle cx="73.33" cy="320.00" r="6" fill="#e91e63" stroke="#2c3e50" stroke-width="1.5"/>
</svg>